<?xml version="1.0" encoding="UTF-8" standalone="no"?>
<!DOCTYPE svg PUBLIC "-//W3C//DTD SVG 1.1//EN"
 "http://www.w3.org/Graphics/SVG/1.1/DTD/svg11.dtd">
<!-- Generated by graphviz version 2.40.1 (20161225.0304)
 -->
<!-- Title: public.users Pages: 1 -->
<svg width="690pt" height="472pt"
 viewBox="0.00 0.00 689.50 472.00" xmlns="http://www.w3.org/2000/svg" xmlns:xlink="http://www.w3.org/1999/xlink">
<g id="graph0" class="graph" transform="scale(1 1) rotate(0) translate(4 468)">
<title>public.users</title>
<polygon fill="#ffffff" stroke="transparent" points="-4,4 -4,-468 685.5,-468 685.5,4 -4,4"/>
<!-- public.users -->
<g id="node1" class="node">
<title>public.users</title>
<polygon fill="#efefef" stroke="transparent" points="235,-105.5 235,-140.5 442,-140.5 442,-105.5 235,-105.5"/>
<polygon fill="none" stroke="#000000" points="235,-105.5 235,-140.5 442,-140.5 442,-105.5 235,-105.5"/>
<text text-anchor="start" x="241.8662" y="-118.3" font-family="Arial Bold" font-size="18.00" fill="#000000">public.users</text>
<text text-anchor="start" x="337.88" y="-118.3" font-family="Arial" font-size="14.00" fill="#000000"> </text>
<text text-anchor="start" x="341.7706" y="-118.3" font-family="Arial" font-size="14.00" fill="#666666">[BASE TABLE]</text>
<polygon fill="none" stroke="#000000" points="235,-75.5 235,-105.5 442,-105.5 442,-75.5 235,-75.5"/>
<text text-anchor="start" x="242" y="-86.9" font-family="Arial" font-size="14.00" fill="#000000">userid </text>
<text text-anchor="start" x="284.0056" y="-86.9" font-family="Arial" font-size="14.00" fill="#666666">[integer]</text>
<polygon fill="none" stroke="#000000" points="235,-45.5 235,-75.5 442,-75.5 442,-45.5 235,-45.5"/>
<text text-anchor="start" x="242" y="-56.9" font-family="Arial" font-size="14.00" fill="#000000">username </text>
<text text-anchor="start" x="308.1248" y="-56.9" font-family="Arial" font-size="14.00" fill="#666666">[varchar(150)]</text>
<polygon fill="none" stroke="#000000" stroke-width="3" points="233,-44.5 233,-142.5 443,-142.5 443,-44.5 233,-44.5"/>
</g>
<!-- public.clip_stack -->
<g id="node2" class="node">
<title>public.clip_stack</title>
<polygon fill="#efefef" stroke="transparent" points="43,-385.5 43,-420.5 285,-420.5 285,-385.5 43,-385.5"/>
<polygon fill="none" stroke="#000000" points="43,-385.5 43,-420.5 285,-420.5 285,-385.5 43,-385.5"/>
<text text-anchor="start" x="49.8639" y="-398.3" font-family="Arial Bold" font-size="18.00" fill="#000000">public.clip_stack</text>
<text text-anchor="start" x="180.8823" y="-398.3" font-family="Arial" font-size="14.00" fill="#000000"> </text>
<text text-anchor="start" x="184.7729" y="-398.3" font-family="Arial" font-size="14.00" fill="#666666">[BASE TABLE]</text>
<polygon fill="none" stroke="#000000" points="43,-355.5 43,-385.5 285,-385.5 285,-355.5 43,-355.5"/>
<text text-anchor="start" x="50" y="-366.9" font-family="Arial" font-size="14.00" fill="#000000">userid </text>
<text text-anchor="start" x="92.0056" y="-366.9" font-family="Arial" font-size="14.00" fill="#666666">[integer]</text>
<polygon fill="none" stroke="#000000" points="43,-325.5 43,-355.5 285,-355.5 285,-325.5 43,-325.5"/>
<text text-anchor="start" x="50" y="-336.9" font-family="Arial" font-size="14.00" fill="#000000">clipid </text>
<text text-anchor="start" x="85.7756" y="-336.9" font-family="Arial" font-size="14.00" fill="#666666">[integer]</text>
<polygon fill="none" stroke="#000000" points="43,-295.5 43,-325.5 285,-325.5 285,-295.5 43,-295.5"/>
<text text-anchor="start" x="50" y="-306.9" font-family="Arial" font-size="14.00" fill="#000000">message </text>
<text text-anchor="start" x="110.6816" y="-306.9" font-family="Arial" font-size="14.00" fill="#666666">[text]</text>
<polygon fill="none" stroke="#000000" points="43,-265.5 43,-295.5 285,-295.5 285,-265.5 43,-265.5"/>
<text text-anchor="start" x="50" y="-276.9" font-family="Arial" font-size="14.00" fill="#000000">secret </text>
<text text-anchor="start" x="92.007" y="-276.9" font-family="Arial" font-size="14.00" fill="#666666">[boolean]</text>
</g>
<!-- public.clip_stack&#45;&gt;public.users -->
<g id="edge1" class="edge">
<title>public.clip_stack:userid&#45;&gt;public.users:userid</title>
<path fill="none" stroke="#000000" d="M295.1845,-369.6637C346.5335,-360.4994 313.1942,-278.0416 285,-223 272.516,-198.6283 247.484,-211.3717 235,-187 215.4468,-148.8276 192.1111,-90.5 235,-90.5"/>
<polygon fill="#000000" stroke="#000000" points="294.9665,-369.6816 284.6317,-366.0151 289.9832,-370.0908 285,-370.5 285,-370.5 285,-370.5 289.9832,-370.0908 285.3683,-374.9849 294.9665,-369.6816 294.9665,-369.6816"/>
<text text-anchor="start" x="292.3905" y="-380.5" font-family="Arial" font-size="10.00" fill="#000000">FOREIGN KEY (userid) REFERENCES users(userid)</text>
</g>
<!-- public.passwords -->
<g id="node3" class="node">
<title>public.passwords</title>
<polygon fill="#efefef" stroke="transparent" points="390,-355.5 390,-390.5 639,-390.5 639,-355.5 390,-355.5"/>
<polygon fill="none" stroke="#000000" points="390,-355.5 390,-390.5 639,-390.5 639,-355.5 390,-355.5"/>
<text text-anchor="start" x="396.8629" y="-368.3" font-family="Arial Bold" font-size="18.00" fill="#000000">public.passwords</text>
<text text-anchor="start" x="534.8833" y="-368.3" font-family="Arial" font-size="14.00" fill="#000000"> </text>
<text text-anchor="start" x="538.7739" y="-368.3" font-family="Arial" font-size="14.00" fill="#666666">[BASE TABLE]</text>
<polygon fill="none" stroke="#000000" points="390,-325.5 390,-355.5 639,-355.5 639,-325.5 390,-325.5"/>
<text text-anchor="start" x="397" y="-336.9" font-family="Arial" font-size="14.00" fill="#000000">userid </text>
<text text-anchor="start" x="439.0056" y="-336.9" font-family="Arial" font-size="14.00" fill="#666666">[integer]</text>
<polygon fill="none" stroke="#000000" points="390,-295.5 390,-325.5 639,-325.5 639,-295.5 390,-295.5"/>
<text text-anchor="start" x="397" y="-306.9" font-family="Arial" font-size="14.00" fill="#000000">hash </text>
<text text-anchor="start" x="431.2384" y="-306.9" font-family="Arial" font-size="14.00" fill="#666666">[varchar(150)]</text>
</g>
<!-- public.passwords&#45;&gt;public.users -->
<g id="edge2" class="edge">
<title>public.passwords:userid&#45;&gt;public.users:userid</title>
<path fill="none" stroke="#000000" d="M380.0816,-338.9972C356.285,-330.3348 378.5575,-286.0124 390,-253 402.23,-217.7155 429.77,-222.2845 442,-187 456.046,-146.4763 484.8889,-90.5 442,-90.5"/>
<polygon fill="#000000" stroke="#000000" points="380.1128,-339.0019 389.3258,-344.9492 385.0564,-339.7509 390,-340.5 390,-340.5 390,-340.5 385.0564,-339.7509 390.6742,-336.0508 380.1128,-339.0019 380.1128,-339.0019"/>
<text text-anchor="start" x="334.6405" y="-324.5" font-family="Arial" font-size="10.00" fill="#000000">FOREIGN KEY (userid) REFERENCES users(userid)</text>
</g>
</g>
</svg>
