<?xml version="1.0" encoding="UTF-8" standalone="no"?>
<!DOCTYPE svg PUBLIC "-//W3C//DTD SVG 1.1//EN"
 "http://www.w3.org/Graphics/SVG/1.1/DTD/svg11.dtd">
<!-- Generated by graphviz version 2.40.1 (20161225.0304)
 -->
<!-- Title: public.clip_stack Pages: 1 -->
<svg width="547pt" height="472pt"
 viewBox="0.00 0.00 547.00 472.00" xmlns="http://www.w3.org/2000/svg" xmlns:xlink="http://www.w3.org/1999/xlink">
<g id="graph0" class="graph" transform="scale(1 1) rotate(0) translate(4 468)">
<title>public.clip_stack</title>
<polygon fill="#ffffff" stroke="transparent" points="-4,4 -4,-468 543,-468 543,4 -4,4"/>
<!-- public.clip_stack -->
<g id="node1" class="node">
<title>public.clip_stack</title>
<polygon fill="#efefef" stroke="transparent" points="251,-382.5 251,-417.5 493,-417.5 493,-382.5 251,-382.5"/>
<polygon fill="none" stroke="#000000" points="251,-382.5 251,-417.5 493,-417.5 493,-382.5 251,-382.5"/>
<text text-anchor="start" x="257.8639" y="-395.3" font-family="Arial Bold" font-size="18.00" fill="#000000">public.clip_stack</text>
<text text-anchor="start" x="388.8823" y="-395.3" font-family="Arial" font-size="14.00" fill="#000000"> </text>
<text text-anchor="start" x="392.7729" y="-395.3" font-family="Arial" font-size="14.00" fill="#666666">[BASE TABLE]</text>
<polygon fill="none" stroke="#000000" points="251,-352.5 251,-382.5 493,-382.5 493,-352.5 251,-352.5"/>
<text text-anchor="start" x="258" y="-363.9" font-family="Arial" font-size="14.00" fill="#000000">userid </text>
<text text-anchor="start" x="300.0056" y="-363.9" font-family="Arial" font-size="14.00" fill="#666666">[integer]</text>
<polygon fill="none" stroke="#000000" points="251,-322.5 251,-352.5 493,-352.5 493,-322.5 251,-322.5"/>
<text text-anchor="start" x="258" y="-333.9" font-family="Arial" font-size="14.00" fill="#000000">clipid </text>
<text text-anchor="start" x="293.7756" y="-333.9" font-family="Arial" font-size="14.00" fill="#666666">[integer]</text>
<polygon fill="none" stroke="#000000" points="251,-292.5 251,-322.5 493,-322.5 493,-292.5 251,-292.5"/>
<text text-anchor="start" x="258" y="-303.9" font-family="Arial" font-size="14.00" fill="#000000">message </text>
<text text-anchor="start" x="318.6816" y="-303.9" font-family="Arial" font-size="14.00" fill="#666666">[text]</text>
<polygon fill="none" stroke="#000000" points="251,-262.5 251,-292.5 493,-292.5 493,-262.5 251,-262.5"/>
<text text-anchor="start" x="258" y="-273.9" font-family="Arial" font-size="14.00" fill="#000000">secret </text>
<text text-anchor="start" x="300.007" y="-273.9" font-family="Arial" font-size="14.00" fill="#666666">[boolean]</text>
<polygon fill="none" stroke="#000000" stroke-width="3" points="249.5,-261.5 249.5,-419.5 494.5,-419.5 494.5,-261.5 249.5,-261.5"/>
</g>
<!-- public.users -->
<g id="node2" class="node">
<title>public.users</title>
<polygon fill="#efefef" stroke="transparent" points="268,-102.5 268,-137.5 475,-137.5 475,-102.5 268,-102.5"/>
<polygon fill="none" stroke="#000000" points="268,-102.5 268,-137.5 475,-137.5 475,-102.5 268,-102.5"/>
<text text-anchor="start" x="274.8662" y="-115.3" font-family="Arial Bold" font-size="18.00" fill="#000000">public.users</text>
<text text-anchor="start" x="370.88" y="-115.3" font-family="Arial" font-size="14.00" fill="#000000"> </text>
<text text-anchor="start" x="374.7706" y="-115.3" font-family="Arial" font-size="14.00" fill="#666666">[BASE TABLE]</text>
<polygon fill="none" stroke="#000000" points="268,-72.5 268,-102.5 475,-102.5 475,-72.5 268,-72.5"/>
<text text-anchor="start" x="275" y="-83.9" font-family="Arial" font-size="14.00" fill="#000000">userid </text>
<text text-anchor="start" x="317.0056" y="-83.9" font-family="Arial" font-size="14.00" fill="#666666">[integer]</text>
<polygon fill="none" stroke="#000000" points="268,-42.5 268,-72.5 475,-72.5 475,-42.5 268,-42.5"/>
<text text-anchor="start" x="275" y="-53.9" font-family="Arial" font-size="14.00" fill="#000000">username </text>
<text text-anchor="start" x="341.1248" y="-53.9" font-family="Arial" font-size="14.00" fill="#666666">[varchar(150)]</text>
</g>
<!-- public.clip_stack&#45;&gt;public.users -->
<g id="edge1" class="edge">
<title>public.clip_stack:userid&#45;&gt;public.users:userid</title>
<path fill="none" stroke="#000000" d="M240.8255,-366.6307C186.7415,-356.7531 209.9895,-265.1278 251,-217 316.3987,-140.2516 409.6013,-257.7484 475,-181 501.9523,-149.3703 516.5556,-87.5 475,-87.5"/>
<polygon fill="#000000" stroke="#000000" points="241.0363,-366.6486 250.6169,-371.9837 246.0181,-367.0743 251,-367.5 251,-367.5 251,-367.5 246.0181,-367.0743 251.3831,-363.0163 241.0363,-366.6486 241.0363,-366.6486"/>
<text text-anchor="start" x="7.3905" y="-377.5" font-family="Arial" font-size="10.00" fill="#000000">FOREIGN KEY (userid) REFERENCES users(userid)</text>
</g>
</g>
</svg>
