<?xml version="1.0" encoding="UTF-8" standalone="no"?>
<!DOCTYPE svg PUBLIC "-//W3C//DTD SVG 1.1//EN"
 "http://www.w3.org/Graphics/SVG/1.1/DTD/svg11.dtd">
<!-- Generated by graphviz version 2.40.1 (20161225.0304)
 -->
<!-- Title: public.passwords Pages: 1 -->
<svg width="554pt" height="412pt"
 viewBox="0.00 0.00 553.50 412.00" xmlns="http://www.w3.org/2000/svg" xmlns:xlink="http://www.w3.org/1999/xlink">
<g id="graph0" class="graph" transform="scale(1 1) rotate(0) translate(4 408)">
<title>public.passwords</title>
<polygon fill="#ffffff" stroke="transparent" points="-4,4 -4,-408 549.5,-408 549.5,4 -4,4"/>
<!-- public.passwords -->
<g id="node1" class="node">
<title>public.passwords</title>
<polygon fill="#efefef" stroke="transparent" points="251,-322.5 251,-357.5 500,-357.5 500,-322.5 251,-322.5"/>
<polygon fill="none" stroke="#000000" points="251,-322.5 251,-357.5 500,-357.5 500,-322.5 251,-322.5"/>
<text text-anchor="start" x="257.8629" y="-335.3" font-family="Arial Bold" font-size="18.00" fill="#000000">public.passwords</text>
<text text-anchor="start" x="395.8833" y="-335.3" font-family="Arial" font-size="14.00" fill="#000000"> </text>
<text text-anchor="start" x="399.7739" y="-335.3" font-family="Arial" font-size="14.00" fill="#666666">[BASE TABLE]</text>
<polygon fill="none" stroke="#000000" points="251,-292.5 251,-322.5 500,-322.5 500,-292.5 251,-292.5"/>
<text text-anchor="start" x="258" y="-303.9" font-family="Arial" font-size="14.00" fill="#000000">userid </text>
<text text-anchor="start" x="300.0056" y="-303.9" font-family="Arial" font-size="14.00" fill="#666666">[integer]</text>
<polygon fill="none" stroke="#000000" points="251,-262.5 251,-292.5 500,-292.5 500,-262.5 251,-262.5"/>
<text text-anchor="start" x="258" y="-273.9" font-family="Arial" font-size="14.00" fill="#000000">hash </text>
<text text-anchor="start" x="292.2384" y="-273.9" font-family="Arial" font-size="14.00" fill="#666666">[varchar(150)]</text>
<polygon fill="none" stroke="#000000" stroke-width="3" points="249,-261.5 249,-359.5 501,-359.5 501,-261.5 249,-261.5"/>
</g>
<!-- public.users -->
<g id="node2" class="node">
<title>public.users</title>
<polygon fill="#efefef" stroke="transparent" points="272,-102.5 272,-137.5 479,-137.5 479,-102.5 272,-102.5"/>
<polygon fill="none" stroke="#000000" points="272,-102.5 272,-137.5 479,-137.5 479,-102.5 272,-102.5"/>
<text text-anchor="start" x="278.8662" y="-115.3" font-family="Arial Bold" font-size="18.00" fill="#000000">public.users</text>
<text text-anchor="start" x="374.88" y="-115.3" font-family="Arial" font-size="14.00" fill="#000000"> </text>
<text text-anchor="start" x="378.7706" y="-115.3" font-family="Arial" font-size="14.00" fill="#666666">[BASE TABLE]</text>
<polygon fill="none" stroke="#000000" points="272,-72.5 272,-102.5 479,-102.5 479,-72.5 272,-72.5"/>
<text text-anchor="start" x="279" y="-83.9" font-family="Arial" font-size="14.00" fill="#000000">userid </text>
<text text-anchor="start" x="321.0056" y="-83.9" font-family="Arial" font-size="14.00" fill="#666666">[integer]</text>
<polygon fill="none" stroke="#000000" points="272,-42.5 272,-72.5 479,-72.5 479,-42.5 272,-42.5"/>
<text text-anchor="start" x="279" y="-53.9" font-family="Arial" font-size="14.00" fill="#000000">username </text>
<text text-anchor="start" x="345.1248" y="-53.9" font-family="Arial" font-size="14.00" fill="#666666">[varchar(150)]</text>
</g>
<!-- public.passwords&#45;&gt;public.users -->
<g id="edge1" class="edge">
<title>public.passwords:userid&#45;&gt;public.users:userid</title>
<path fill="none" stroke="#000000" d="M240.8178,-306.6591C154.3962,-291.8888 177.3268,-87.5 272,-87.5"/>
<polygon fill="#000000" stroke="#000000" points="241.0339,-306.6768 250.6296,-311.9847 246.017,-307.0884 251,-307.5 251,-307.5 251,-307.5 246.017,-307.0884 251.3704,-303.0153 241.0339,-306.6768 241.0339,-306.6768"/>
<text text-anchor="start" x="7.3905" y="-317.5" font-family="Arial" font-size="10.00" fill="#000000">FOREIGN KEY (userid) REFERENCES users(userid)</text>
</g>
</g>
</svg>
