<?xml version="1.0" encoding="UTF-8" standalone="no"?>
<!DOCTYPE svg PUBLIC "-//W3C//DTD SVG 1.1//EN"
 "http://www.w3.org/Graphics/SVG/1.1/DTD/svg11.dtd">
<!-- Generated by graphviz version 2.40.1 (20161225.0304)
 -->
<!-- Title: postgres Pages: 1 -->
<svg width="690pt" height="466pt"
 viewBox="0.00 0.00 689.50 466.00" xmlns="http://www.w3.org/2000/svg" xmlns:xlink="http://www.w3.org/1999/xlink">
<g id="graph0" class="graph" transform="scale(1 1) rotate(0) translate(4 462)">
<title>postgres</title>
<polygon fill="#ffffff" stroke="transparent" points="-4,4 -4,-462 685.5,-462 685.5,4 -4,4"/>
<!-- public.users -->
<g id="node1" class="node">
<title>public.users</title>
<polygon fill="#efefef" stroke="transparent" points="235,-102.5 235,-137.5 442,-137.5 442,-102.5 235,-102.5"/>
<polygon fill="none" stroke="#000000" points="235,-102.5 235,-137.5 442,-137.5 442,-102.5 235,-102.5"/>
<text text-anchor="start" x="241.8662" y="-115.3" font-family="Arial Bold" font-size="18.00" fill="#000000">public.users</text>
<text text-anchor="start" x="337.88" y="-115.3" font-family="Arial" font-size="14.00" fill="#000000"> </text>
<text text-anchor="start" x="341.7706" y="-115.3" font-family="Arial" font-size="14.00" fill="#666666">[BASE TABLE]</text>
<polygon fill="none" stroke="#000000" points="235,-72.5 235,-102.5 442,-102.5 442,-72.5 235,-72.5"/>
<text text-anchor="start" x="242" y="-83.9" font-family="Arial" font-size="14.00" fill="#000000">userid </text>
<text text-anchor="start" x="284.0056" y="-83.9" font-family="Arial" font-size="14.00" fill="#666666">[integer]</text>
<polygon fill="none" stroke="#000000" points="235,-42.5 235,-72.5 442,-72.5 442,-42.5 235,-42.5"/>
<text text-anchor="start" x="242" y="-53.9" font-family="Arial" font-size="14.00" fill="#000000">username </text>
<text text-anchor="start" x="308.1248" y="-53.9" font-family="Arial" font-size="14.00" fill="#666666">[varchar(150)]</text>
</g>
<!-- public.clip_stack -->
<g id="node2" class="node">
<title>public.clip_stack</title>
<polygon fill="#efefef" stroke="transparent" points="43,-379.5 43,-414.5 285,-414.5 285,-379.5 43,-379.5"/>
<polygon fill="none" stroke="#000000" points="43,-379.5 43,-414.5 285,-414.5 285,-379.5 43,-379.5"/>
<text text-anchor="start" x="49.8639" y="-392.3" font-family="Arial Bold" font-size="18.00" fill="#000000">public.clip_stack</text>
<text text-anchor="start" x="180.8823" y="-392.3" font-family="Arial" font-size="14.00" fill="#000000"> </text>
<text text-anchor="start" x="184.7729" y="-392.3" font-family="Arial" font-size="14.00" fill="#666666">[BASE TABLE]</text>
<polygon fill="none" stroke="#000000" points="43,-349.5 43,-379.5 285,-379.5 285,-349.5 43,-349.5"/>
<text text-anchor="start" x="50" y="-360.9" font-family="Arial" font-size="14.00" fill="#000000">userid </text>
<text text-anchor="start" x="92.0056" y="-360.9" font-family="Arial" font-size="14.00" fill="#666666">[integer]</text>
<polygon fill="none" stroke="#000000" points="43,-319.5 43,-349.5 285,-349.5 285,-319.5 43,-319.5"/>
<text text-anchor="start" x="50" y="-330.9" font-family="Arial" font-size="14.00" fill="#000000">clipid </text>
<text text-anchor="start" x="85.7756" y="-330.9" font-family="Arial" font-size="14.00" fill="#666666">[integer]</text>
<polygon fill="none" stroke="#000000" points="43,-289.5 43,-319.5 285,-319.5 285,-289.5 43,-289.5"/>
<text text-anchor="start" x="50" y="-300.9" font-family="Arial" font-size="14.00" fill="#000000">message </text>
<text text-anchor="start" x="110.6816" y="-300.9" font-family="Arial" font-size="14.00" fill="#666666">[text]</text>
<polygon fill="none" stroke="#000000" points="43,-259.5 43,-289.5 285,-289.5 285,-259.5 43,-259.5"/>
<text text-anchor="start" x="50" y="-270.9" font-family="Arial" font-size="14.00" fill="#000000">secret </text>
<text text-anchor="start" x="92.007" y="-270.9" font-family="Arial" font-size="14.00" fill="#666666">[boolean]</text>
</g>
<!-- public.clip_stack&#45;&gt;public.users -->
<g id="edge1" class="edge">
<title>public.clip_stack:userid&#45;&gt;public.users:userid</title>
<path fill="none" stroke="#000000" d="M295.1845,-363.6637C346.5335,-354.4994 313.1942,-272.0416 285,-217 272.516,-192.6283 247.484,-205.3717 235,-181 216.0547,-144.0143 193.4444,-87.5 235,-87.5"/>
<polygon fill="#000000" stroke="#000000" points="294.9665,-363.6816 284.6317,-360.0151 289.9832,-364.0908 285,-364.5 285,-364.5 285,-364.5 289.9832,-364.0908 285.3683,-368.9849 294.9665,-363.6816 294.9665,-363.6816"/>
<text text-anchor="start" x="292.3905" y="-374.5" font-family="Arial" font-size="10.00" fill="#000000">FOREIGN KEY (userid) REFERENCES users(userid)</text>
</g>
<!-- public.passwords -->
<g id="node3" class="node">
<title>public.passwords</title>
<polygon fill="#efefef" stroke="transparent" points="390,-349.5 390,-384.5 639,-384.5 639,-349.5 390,-349.5"/>
<polygon fill="none" stroke="#000000" points="390,-349.5 390,-384.5 639,-384.5 639,-349.5 390,-349.5"/>
<text text-anchor="start" x="396.8629" y="-362.3" font-family="Arial Bold" font-size="18.00" fill="#000000">public.passwords</text>
<text text-anchor="start" x="534.8833" y="-362.3" font-family="Arial" font-size="14.00" fill="#000000"> </text>
<text text-anchor="start" x="538.7739" y="-362.3" font-family="Arial" font-size="14.00" fill="#666666">[BASE TABLE]</text>
<polygon fill="none" stroke="#000000" points="390,-319.5 390,-349.5 639,-349.5 639,-319.5 390,-319.5"/>
<text text-anchor="start" x="397" y="-330.9" font-family="Arial" font-size="14.00" fill="#000000">userid </text>
<text text-anchor="start" x="439.0056" y="-330.9" font-family="Arial" font-size="14.00" fill="#666666">[integer]</text>
<polygon fill="none" stroke="#000000" points="390,-289.5 390,-319.5 639,-319.5 639,-289.5 390,-289.5"/>
<text text-anchor="start" x="397" y="-300.9" font-family="Arial" font-size="14.00" fill="#000000">hash </text>
<text text-anchor="start" x="431.2384" y="-300.9" font-family="Arial" font-size="14.00" fill="#666666">[varchar(150)]</text>
</g>
<!-- public.passwords&#45;&gt;public.users -->
<g id="edge2" class="edge">
<title>public.passwords:userid&#45;&gt;public.users:userid</title>
<path fill="none" stroke="#000000" d="M380.0816,-332.9972C356.285,-324.3348 378.5575,-280.0124 390,-247 402.23,-211.7155 429.77,-216.2845 442,-181 455.6093,-141.7361 483.5556,-87.5 442,-87.5"/>
<polygon fill="#000000" stroke="#000000" points="380.1128,-333.0019 389.3258,-338.9492 385.0564,-333.7509 390,-334.5 390,-334.5 390,-334.5 385.0564,-333.7509 390.6742,-330.0508 380.1128,-333.0019 380.1128,-333.0019"/>
<text text-anchor="start" x="334.6405" y="-318.5" font-family="Arial" font-size="10.00" fill="#000000">FOREIGN KEY (userid) REFERENCES users(userid)</text>
</g>
</g>
</svg>
