<svg version="1.1" xmlns="http://www.w3.org/2000/svg" viewBox="0 0 4282.8074076940775 3042.1035425738246" width="4282.8074076940775" height="3042.1035425738246">
  <!-- svg-source:excalidraw -->
  
  <defs>
    <style class="style-fonts">
      @font-face {
        font-family: "Virgil";
        src: url("https://excalidraw.com/Virgil.woff2");
      }
      @font-face {
        font-family: "Cascadia";
        src: url("https://excalidraw.com/Cascadia.woff2");
      }
    </style>
  </defs>
  <rect x="0" y="0" width="4282.8074076940775" height="3042.1035425738246" fill="#ffffff"></rect><g stroke-linecap="round" transform="translate(352.9506577729476 11.816073262718419) rotate(0 38.45902388392528 29.824630078923178)"><path d="M76.92 29.82 C76.92 31.38, 76.76 32.95, 76.44 34.49 C76.13 36.03, 75.66 37.56, 75.04 39.04 C74.42 40.52, 73.64 41.98, 72.73 43.36 C71.82 44.75, 70.75 46.1, 69.57 47.36 C68.39 48.61, 67.07 49.81, 65.65 50.91 C64.24 52.01, 62.69 53.04, 61.06 53.95 C59.44 54.87, 57.71 55.69, 55.92 56.4 C54.13 57.1, 52.25 57.71, 50.34 58.19 C48.44 58.67, 46.46 59.04, 44.48 59.28 C42.49 59.53, 40.46 59.65, 38.46 59.65 C36.45 59.65, 34.42 59.53, 32.44 59.28 C30.46 59.04, 28.48 58.67, 26.57 58.19 C24.67 57.71, 22.79 57.1, 21 56.4 C19.21 55.69, 17.48 54.87, 15.85 53.95 C14.23 53.04, 12.68 52.01, 11.26 50.91 C9.85 49.81, 8.52 48.61, 7.35 47.36 C6.17 46.1, 5.1 44.75, 4.19 43.36 C3.28 41.98, 2.5 40.52, 1.88 39.04 C1.26 37.56, 0.79 36.03, 0.47 34.49 C0.16 32.95, 0 31.38, 0 29.82 C0 28.27, 0.16 26.7, 0.47 25.16 C0.79 23.62, 1.26 22.09, 1.88 20.61 C2.5 19.13, 3.28 17.67, 4.19 16.28 C5.1 14.9, 6.17 13.55, 7.35 12.29 C8.52 11.04, 9.85 9.84, 11.26 8.74 C12.68 7.64, 14.23 6.61, 15.85 5.7 C17.48 4.78, 19.21 3.96, 21 3.25 C22.79 2.54, 24.67 1.94, 26.57 1.46 C28.48 0.98, 30.46 0.61, 32.44 0.37 C34.42 0.12, 36.45 0, 38.46 0 C40.46 0, 42.49 0.12, 44.48 0.37 C46.46 0.61, 48.44 0.98, 50.34 1.46 C52.25 1.94, 54.13 2.54, 55.92 3.25 C57.71 3.96, 59.44 4.78, 61.06 5.7 C62.69 6.61, 64.24 7.64, 65.65 8.74 C67.07 9.84, 68.39 11.04, 69.57 12.29 C70.75 13.55, 71.82 14.9, 72.73 16.28 C73.64 17.67, 74.42 19.13, 75.04 20.61 C75.66 22.09, 76.13 23.62, 76.44 25.16 C76.76 26.7, 76.84 29.05, 76.92 29.82 C77 30.6, 77 29.05, 76.92 29.82" stroke="#000000" stroke-width="4" fill="none"></path></g><g stroke-linecap="round"><g transform="translate(391.76246341827914 73.92650304950541) rotate(0 2.3652740428755124 88.69608870244952)"><path d="M0 0 C0.79 29.57, 3.94 147.83, 4.73 177.39 M0 0 C0.79 29.57, 3.94 147.83, 4.73 177.39" stroke="#000000" stroke-width="4" fill="none"></path></g></g><mask></mask><g stroke-linecap="round"><g transform="translate(309.0395030353735 109.20266587182687) rotate(0 86.18506916781843 -1.3434899602792711)"><path d="M0 0 C28.73 -0.45, 143.64 -2.24, 172.37 -2.69 M0 0 C28.73 -0.45, 143.64 -2.24, 172.37 -2.69" stroke="#000000" stroke-width="4" fill="none"></path></g></g><mask></mask><g stroke-linecap="round"><g transform="translate(324.4859875353976 315.9840808497336) rotate(0 34.772677479443985 -32.34913503181082)"><path d="M0 0 C11.59 -10.78, 57.95 -53.92, 69.55 -64.7 M0 0 C11.59 -10.78, 57.95 -53.92, 69.55 -64.7" stroke="#000000" stroke-width="4" fill="none"></path></g></g><mask></mask><g stroke-linecap="round"><g transform="translate(398.2360793130433 250.41203454298636) rotate(0 31.77676111544622 29.84737947939982)"><path d="M0 0 C10.59 9.95, 52.96 49.75, 63.55 59.69 M0 0 C10.59 9.95, 52.96 49.75, 63.55 59.69" stroke="#000000" stroke-width="4" fill="none"></path></g></g><mask></mask><g stroke-linecap="round"><g transform="translate(392.8278021867093 331.95179062550153) rotate(0 -1.1368683772161603e-13 1349.5720219356676)"><path d="M0 0 C0 449.86, 0 2249.29, 0 2699.14" stroke="#000000" stroke-width="4.5" fill="none" stroke-dasharray="8 12"></path></g></g><mask></mask><g stroke-linecap="round" transform="translate(1142.3244619897537 11.100819066238728) rotate(0 301.4422174111396 152.79925798998727)"><path d="M0 0 C210.4 0, 420.79 0, 602.88 0 M0 0 C222.51 0, 445.02 0, 602.88 0 M602.88 0 C602.88 93.78, 602.88 187.56, 602.88 305.6 M602.88 0 C602.88 84.82, 602.88 169.63, 602.88 305.6 M602.88 305.6 C395.12 305.6, 187.36 305.6, 0 305.6 M602.88 305.6 C467.09 305.6, 331.29 305.6, 0 305.6 M0 305.6 C0 243.21, 0 180.82, 0 0 M0 305.6 C0 209.81, 0 114.02, 0 0" stroke="#000000" stroke-width="4" fill="none"></path></g><g stroke-linecap="round"><g transform="translate(1427.4941686438442 1702.5276384548679) rotate(0 0 664.7879520594784)"><path d="M0 0 C0 221.6, 0 1107.98, 0 1329.58" stroke="#000000" stroke-width="4.5" fill="none" stroke-dasharray="8 12"></path></g></g><mask></mask><g stroke-linecap="round"><g transform="translate(2707.494168643844 2924.554694570425) rotate(0 0 52.2744240016998)"><path d="M0 0 C0 17.42, 0 87.12, 0 104.55" stroke="#000000" stroke-width="4.5" fill="none" stroke-dasharray="8 12"></path></g></g><mask></mask><g transform="translate(1327.8473535467979 141.6522543458235) rotate(0 105.46875 21.600000000000023)"><text x="105.46875" y="0" font-family="Cascadia, Segoe UI Emoji" font-size="36px" fill="#000000" text-anchor="middle" style="white-space: pre;" direction="ltr" dominant-baseline="text-before-edge">Middleware</text></g><g stroke-linecap="round" transform="translate(2406.123717430776 11.100819066238728) rotate(0 301.4422174111396 152.79925798998727)"><path d="M0 0 C207.55 0, 415.1 0, 602.88 0 M0 0 C219.6 0, 439.19 0, 602.88 0 M602.88 0 C602.88 65.04, 602.88 130.09, 602.88 305.6 M602.88 0 C602.88 61.95, 602.88 123.89, 602.88 305.6 M602.88 305.6 C430.51 305.6, 258.13 305.6, 0 305.6 M602.88 305.6 C443.48 305.6, 284.07 305.6, 0 305.6 M0 305.6 C0 201.54, 0 97.48, 0 0 M0 305.6 C0 237.34, 0 169.08, 0 0" stroke="#000000" stroke-width="4" fill="none"></path></g><g stroke-linecap="round"><g transform="translate(2707.565934841916 318.0904525172904) rotate(0 0 682.9470988646419)"><path d="M0 0 C0 227.65, 0 1138.25, 0 1365.89" stroke="#000000" stroke-width="4.5" fill="none" stroke-dasharray="8 12"></path></g></g><mask></mask><g transform="translate(2602.097184841916 142.30007705622597) rotate(0 105.46875 21.600000000000023)"><text x="105.46875" y="0" font-family="Cascadia, Segoe UI Emoji" font-size="36px" fill="#000000" text-anchor="middle" style="white-space: pre;" direction="ltr" dominant-baseline="text-before-edge">API Server</text></g><g stroke-linecap="round" transform="translate(3669.9229728717983 10) rotate(0 301.4422174111396 152.79925798998727)"><path d="M0 0 C173.28 0, 346.57 0, 602.88 0 M0 0 C182.73 0, 365.46 0, 602.88 0 M602.88 0 C602.88 120.29, 602.88 240.59, 602.88 305.6 M602.88 0 C602.88 70.9, 602.88 141.8, 602.88 305.6 M602.88 305.6 C410.43 305.6, 217.98 305.6, 0 305.6 M602.88 305.6 C373.05 305.6, 143.22 305.6, 0 305.6 M0 305.6 C0 196.62, 0 87.63, 0 0 M0 305.6 C0 212.42, 0 119.24, 0 0" stroke="#000000" stroke-width="4" fill="none"></path></g><g stroke-linecap="round"><g transform="translate(3971.365190282938 315.46865373361504) rotate(0 0 844.8471903132199)"><path d="M0 0 C0 281.62, 0 1408.08, 0 1689.69" stroke="#000000" stroke-width="4.5" fill="none" stroke-dasharray="8 12"></path></g></g><mask></mask><g transform="translate(3886.990190282938 141.19925798998725) rotate(0 84.375 21.600000000000023)"><text x="84.375" y="0" font-family="Cascadia, Segoe UI Emoji" font-size="36px" fill="#000000" text-anchor="middle" style="white-space: pre;" direction="ltr" dominant-baseline="text-before-edge">Database</text></g><g mask="url(#mask-jJVio88buX6lUW3gT2_Y6)" stroke-linecap="round"><g transform="translate(393.48657568594194 607.099732948889) rotate(0 491.50231525303 0)"><path d="M0 0 C163.83 0, 819.17 0, 983 0 M0 0 C163.83 0, 819.17 0, 983 0" stroke="#000000" stroke-width="4" fill="none"></path></g><g transform="translate(393.48657568594194 607.099732948889) rotate(0 491.50231525303 0)"><path d="M954.81 10.26 C960.45 8.21, 966.09 6.16, 983 0 M954.81 10.26 C960.45 8.21, 966.09 6.16, 983 0" stroke="#000000" stroke-width="4" fill="none"></path></g><g transform="translate(393.48657568594194 607.099732948889) rotate(0 491.50231525303 0)"><path d="M954.81 -10.26 C960.45 -8.21, 966.09 -6.16, 983 0 M954.81 -10.26 C960.45 -8.21, 966.09 -6.16, 983 0" stroke="#000000" stroke-width="4" fill="none"></path></g></g><mask id="mask-jJVio88buX6lUW3gT2_Y6"><rect x="0" y="0" fill="#fff" width="1476.491206192002" height="707.099732948889"></rect><rect x="737.332640938972" y="585.4997329488892" fill="#000" width="295.3125" height="43.199999999999996" opacity="1"></rect></mask><g transform="translate(737.332640938972 585.4997329488892) rotate(0 147.65625 21.59999999999991)"><text x="147.65625" y="0" font-family="Cascadia, Segoe UI Emoji" font-size="36px" fill="#000000" text-anchor="middle" style="white-space: pre;" direction="ltr" dominant-baseline="text-before-edge">Send JSON Data</text></g><g mask="url(#mask-ih54QVUOjCGpTCcyxkWNW)" stroke-linecap="round"><g transform="translate(1483.5678657671242 706.0269267006023) rotate(0 182.05776095845408 128.3841856889842)"><path d="M0 0 C61 18.55, 366.31 68.49, 366 111.28 C365.69 154.08, 59.43 232.52, -1.88 256.77 M0 0 C61 18.55, 366.31 68.49, 366 111.28 C365.69 154.08, 59.43 232.52, -1.88 256.77" stroke="#000000" stroke-width="4" fill="none"></path></g><g transform="translate(1483.5678657671242 706.0269267006023) rotate(0 182.05776095845408 128.3841856889842)"><path d="M21.84 238.41 C13.57 244.81, 5.3 251.21, -1.88 256.77 M21.84 238.41 C14.54 244.06, 7.24 249.71, -1.88 256.77" stroke="#000000" stroke-width="4" fill="none"></path></g><g transform="translate(1483.5678657671242 706.0269267006023) rotate(0 182.05776095845408 128.3841856889842)"><path d="M28.09 257.96 C17.64 257.54, 7.19 257.13, -1.88 256.77 M28.09 257.96 C18.87 257.59, 9.65 257.23, -1.88 256.77" stroke="#000000" stroke-width="4" fill="none"></path></g></g><mask id="mask-ih54QVUOjCGpTCcyxkWNW"><rect x="0" y="0" fill="#fff" width="1951.4525860607519" height="1062.7952980785708"></rect><rect x="1733.5522407671242" y="774.1077207807311" fill="#000" width="232.03125" height="86.39999999999999" opacity="1"></rect></mask><g transform="translate(1733.5522407671242 774.1077207807314) rotate(0 -67.92661404154592 60.303391608855236)"><text x="116.015625" y="0" font-family="Cascadia, Segoe UI Emoji" font-size="36px" fill="#000000" text-anchor="middle" style="white-space: pre;" direction="ltr" dominant-baseline="text-before-edge">Verify JWT </text><text x="116.015625" y="43.199999999999996" font-family="Cascadia, Segoe UI Emoji" font-size="36px" fill="#000000" text-anchor="middle" style="white-space: pre;" direction="ltr" dominant-baseline="text-before-edge">Token</text></g><g stroke-linecap="round" transform="translate(48.870088393937294 1024.0781982044064) rotate(0 1418.5205422148947 311.17704124466627)"><path d="M-0.63 -0.73 C646.87 -8.75, 1295.12 -8.94, 2837.24 0.36 M-0.22 0.33 C713.51 -0.01, 1427.27 0.16, 2837.4 0.36 M2836.82 0.2 C2835.77 165.63, 2835.96 330.43, 2836.56 622.33 M2837.16 -0.16 C2835.64 147.14, 2835.45 294.67, 2836.65 621.98 M2836.29 622.09 C1999.17 613.72, 1162.85 613.69, -0.68 622.33 M2837.33 622.58 C1918.75 626.29, 999.6 626.22, 0.35 622.39 M-0.52 622.2 C-1.53 456.28, -2.73 288.1, 0.24 0.55 M0.02 622.05 C-0.26 390.91, -0.02 159.57, -0.25 -0.31" stroke="#000000" stroke-width="1" fill="none"></path></g><g stroke-linecap="round"><g transform="translate(50.91369169416021 1335.2552394490726) rotate(0 1418.1704537620435 0)"><path d="M0 0 C472.72 0, 2363.62 0, 2836.34 0" stroke="#000000" stroke-width="4.5" fill="none" stroke-dasharray="8 12"></path></g></g><mask></mask><g transform="translate(68.61018036498558 1079.7240729482755) rotate(0 147.65625 16.799999999999955)"><text x="147.65625" y="0" font-family="Cascadia, Segoe UI Emoji" font-size="28px" fill="#000000" text-anchor="middle" style="white-space: pre;" direction="ltr" dominant-baseline="text-before-edge">[ If (Valid JWT) ]</text></g><g transform="translate(131.89143036498558 1386.7693539940674) rotate(0 84.375 21.600000000000023)"><text x="84.375" y="0" font-family="Cascadia, Segoe UI Emoji" font-size="36px" fill="#000000" text-anchor="middle" style="white-space: pre;" direction="ltr" dominant-baseline="text-before-edge">[ Else ]</text></g><g mask="url(#mask-Yx_GD5I0RPaLT_LimGVUJ)" stroke-linecap="round"><g transform="translate(1476.4393434736135 1183.263946010356) rotate(0 614.5655247266079 0)"><path d="M0 0 C204.86 0, 1024.28 0, 1229.13 0 M0 0 C204.86 0, 1024.28 0, 1229.13 0" stroke="#000000" stroke-width="4" fill="none"></path></g><g transform="translate(1476.4393434736135 1183.263946010356) rotate(0 614.5655247266079 0)"><path d="M1200.94 10.26 C1208.15 7.64, 1215.35 5.01, 1229.13 0 M1200.94 10.26 C1210.85 6.65, 1220.76 3.05, 1229.13 0" stroke="#000000" stroke-width="4" fill="none"></path></g><g transform="translate(1476.4393434736135 1183.263946010356) rotate(0 614.5655247266079 0)"><path d="M1200.94 -10.26 C1208.15 -7.64, 1215.35 -5.01, 1229.13 0 M1200.94 -10.26 C1210.85 -6.65, 1220.76 -3.05, 1229.13 0" stroke="#000000" stroke-width="4" fill="none"></path></g></g><mask id="mask-Yx_GD5I0RPaLT_LimGVUJ"><rect x="0" y="0" fill="#fff" width="2805.5703929268293" height="1283.263946010356"></rect><rect x="1992.567368200222" y="1166.4639460103558" fill="#000" width="196.875" height="33.6" opacity="1"></rect></mask><g transform="translate(1992.5673682002216 1166.4639460103556) rotate(0 98.43749999999977 16.799999999999955)"><text x="98.4375" y="0" font-family="Cascadia, Segoe UI Emoji" font-size="28px" fill="#000000" text-anchor="middle" style="white-space: pre;" direction="ltr" dominant-baseline="text-before-edge">Forward Data</text></g><g mask="url(#mask-v3k0KYUpq65zk1ANpoa1f)" stroke-linecap="round"><g transform="translate(1377.6717186372534 1511.2392245197789) rotate(0 -487.6561104178596 0)"><path d="M0 0 C-162.55 0, -812.76 0, -975.31 0" stroke="#000000" stroke-width="4.5" fill="none" stroke-dasharray="8 12"></path></g><g transform="translate(1377.6717186372534 1511.2392245197789) rotate(0 -487.6561104178596 0)"><path d="M-947.12 -10.26 C-956.07 -7, -965.02 -3.75, -975.31 0" stroke="#000000" stroke-width="4.5" fill="none"></path></g><g transform="translate(1377.6717186372534 1511.2392245197789) rotate(0 -487.6561104178596 0)"><path d="M-947.12 10.26 C-956.07 7, -965.02 3.75, -975.31 0" stroke="#000000" stroke-width="4.5" fill="none"></path></g></g><mask id="mask-v3k0KYUpq65zk1ANpoa1f"><rect x="0" y="0" fill="#fff" width="2452.9839394729725" height="1611.2392245197789"></rect><rect x="679.0781082193939" y="1468.0392245197788" fill="#000" width="421.875" height="86.39999999999999" opacity="1"></rect></mask><g transform="translate(679.0781082193939 1468.039224519779) rotate(0 210.9374999999999 43.200000000000045)"><text x="0" y="0" font-family="Cascadia, Segoe UI Emoji" font-size="36px" fill="#000000" text-anchor="start" style="white-space: pre;" direction="ltr" dominant-baseline="text-before-edge">Status: 401</text><text x="0" y="43.199999999999996" font-family="Cascadia, Segoe UI Emoji" font-size="36px" fill="#000000" text-anchor="start" style="white-space: pre;" direction="ltr" dominant-baseline="text-before-edge">Message: Invalid JWT</text></g><g mask="url(#mask-3abrwNqzPqLw-cwEkVJS4)" stroke-linecap="round"><g transform="translate(2757.5873304262514 1752.4675546779977) rotate(0 183.00088711710077 127)"><path d="M0 0 C61 18.55, 365.15 68.95, 366 111.28 C366.85 153.61, 65.23 230.21, 5.07 254 M0 0 C61 18.55, 365.15 68.95, 366 111.28 C366.85 153.61, 65.23 230.21, 5.07 254" stroke="#000000" stroke-width="4" fill="none"></path></g><g transform="translate(2757.5873304262514 1752.4675546779977) rotate(0 183.00088711710077 127)"><path d="M28.82 235.67 C21.18 241.57, 13.53 247.47, 5.07 254 M28.82 235.67 C19.44 242.91, 10.06 250.15, 5.07 254" stroke="#000000" stroke-width="4" fill="none"></path></g><g transform="translate(2757.5873304262514 1752.4675546779977) rotate(0 183.00088711710077 127)"><path d="M35.05 255.23 C25.4 254.83, 15.75 254.44, 5.07 254 M35.05 255.23 C23.21 254.74, 11.37 254.26, 5.07 254" stroke="#000000" stroke-width="4" fill="none"></path></g></g><mask id="mask-3abrwNqzPqLw-cwEkVJS4"><rect x="0" y="0" fill="#fff" width="3223.5873304262514" height="2106.4675546779977"></rect><rect x="3007.5717054262514" y="1820.5483487581268" fill="#000" width="232.03125" height="86.39999999999999" opacity="1"></rect></mask><g transform="translate(3007.571705426252 1820.5483487581268) rotate(0 -66.98348788289923 58.91920591987082)"><text x="116.015625" y="0" font-family="Cascadia, Segoe UI Emoji" font-size="36px" fill="#000000" text-anchor="middle" style="white-space: pre;" direction="ltr" dominant-baseline="text-before-edge">Check JSON </text><text x="116.015625" y="43.199999999999996" font-family="Cascadia, Segoe UI Emoji" font-size="36px" fill="#000000" text-anchor="middle" style="white-space: pre;" direction="ltr" dominant-baseline="text-before-edge">Format</text></g><g stroke-linecap="round" transform="translate(10 2076.2928249138117) rotate(0 2047.3082100553393 314.9213599744244)"><path d="M0.42 -0.69 C1151.37 -0.55, 2302.49 -0.61, 4095.02 -0.49 M-0.02 0.02 C1586.44 -5.06, 3173.15 -4.84, 4094.71 -0.18 M4094.18 0.01 C4095.71 242.53, 4095.63 484.43, 4094.61 630.53 M4094.83 0.07 C4095.31 137.27, 4094.83 274.2, 4094.62 630.2 M4094.22 630.5 C2528.8 645.86, 964.1 645.91, 0.27 630.29 M4094.96 629.73 C3196.23 637.71, 2298.52 637.2, -0.4 629.54 M0.26 630.35 C1.59 396.43, 1.63 163.09, 0.09 0.48 M-0.25 629.49 C-0.93 398.04, -0.53 165.85, -0.21 0.4" stroke="#000000" stroke-width="1" fill="none"></path></g><g stroke-linecap="round"><g transform="translate(11.700057182875753 2386.1270875098) rotate(0 2047.0966774561516 0.6449658024953351)"><path d="M0 0 C682.37 0.21, 3411.83 1.07, 4094.19 1.29" stroke="#000000" stroke-width="4.5" fill="none" stroke-dasharray="8 12"></path></g></g><mask></mask><g transform="translate(27.731779218069732 2124.96457554321) rotate(0 172.265625 16.799999999999955)"><text x="172.265625" y="0" font-family="Cascadia, Segoe UI Emoji" font-size="28px" fill="#000000" text-anchor="middle" style="white-space: pre;" direction="ltr" dominant-baseline="text-before-edge">[ If (Valid Format) ]</text></g><g transform="translate(115.62240421806973 2437.641202054795) rotate(0 84.375 21.59999999999991)"><text x="84.375" y="0" font-family="Cascadia, Segoe UI Emoji" font-size="36px" fill="#000000" text-anchor="middle" style="white-space: pre;" direction="ltr" dominant-baseline="text-before-edge">[ Else ]</text></g><g mask="url(#mask-fWqAOOS05GT9msgcWiBkh)" stroke-linecap="round"><g transform="translate(2767.3418906190873 2214.149161909754) rotate(0 574.8254324027621 0)"><path d="M0 0 C191.61 0, 958.04 0, 1149.65 0 M0 0 C191.61 0, 958.04 0, 1149.65 0" stroke="#000000" stroke-width="4" fill="none"></path></g><g transform="translate(2767.3418906190873 2214.149161909754) rotate(0 574.8254324027621 0)"><path d="M1121.46 10.26 C1127.48 8.07, 1133.51 5.87, 1149.65 0 M1121.46 10.26 C1130.07 7.13, 1138.67 4, 1149.65 0" stroke="#000000" stroke-width="4" fill="none"></path></g><g transform="translate(2767.3418906190873 2214.149161909754) rotate(0 574.8254324027621 0)"><path d="M1121.46 -10.26 C1127.48 -8.07, 1133.51 -5.87, 1149.65 0 M1121.46 -10.26 C1130.07 -7.13, 1138.67 -4, 1149.65 0" stroke="#000000" stroke-width="4" fill="none"></path></g></g><mask id="mask-fWqAOOS05GT9msgcWiBkh"><rect x="0" y="0" fill="#fff" width="4016.9927554246115" height="2314.149161909754"></rect><rect x="3251.9329480218494" y="2197.349161909754" fill="#000" width="180.46875" height="33.6" opacity="1"></rect></mask><g transform="translate(3251.932948021849 2197.349161909754) rotate(0 90.234375 16.800000000000182)"><text x="90.234375" y="0" font-family="Cascadia, Segoe UI Emoji" font-size="28px" fill="#000000" text-anchor="middle" style="white-space: pre;" direction="ltr" dominant-baseline="text-before-edge">Insert Data</text></g><g mask="url(#mask-hCr2cnpz-xisCjXz3cu8R)" stroke-linecap="round"><g transform="translate(2657.8211536756216 2535.3042276561205) rotate(0 -1131.052989439938 -1.157406886459512)"><path d="M0 0 C-111.51 -0.36, -292.02 -1.8, -669.03 -2.16 C-1046.05 -2.51, -1996.59 -2.16, -2262.11 -2.16" stroke="#000000" stroke-width="4.5" fill="none" stroke-dasharray="8 12"></path></g><g transform="translate(2657.8211536756216 2535.3042276561205) rotate(0 -1131.052989439938 -1.157406886459512)"><path d="M-2233.92 -12.42 C-2242.43 -9.32, -2250.94 -6.22, -2262.11 -2.16" stroke="#000000" stroke-width="4.5" fill="none"></path></g><g transform="translate(2657.8211536756216 2535.3042276561205) rotate(0 -1131.052989439938 -1.157406886459512)"><path d="M-2233.91 8.1 C-2242.42 5, -2250.93 1.91, -2262.11 -2.16" stroke="#000000" stroke-width="4.5" fill="none"></path></g></g><mask id="mask-hCr2cnpz-xisCjXz3cu8R"><rect x="0" y="0" fill="#fff" width="5019.927132555498" height="2637.459399099873"></rect><rect x="1788.3972810030054" y="2489.9490562123688" fill="#000" width="400.78125" height="86.39999999999999" opacity="1"></rect></mask><g transform="translate(1788.397281003005 2489.9490562123683) rotate(0 -261.6291167673214 44.19776455729266)"><text x="0" y="0" font-family="Cascadia, Segoe UI Emoji" font-size="36px" fill="#000000" text-anchor="start" style="white-space: pre;" direction="ltr" dominant-baseline="text-before-edge">Status: 400 </text><text x="0" y="43.199999999999996" font-family="Cascadia, Segoe UI Emoji" font-size="36px" fill="#000000" text-anchor="start" style="white-space: pre;" direction="ltr" dominant-baseline="text-before-edge">Invalid JSON Format</text></g><g mask="url(#mask-z-l_2uHwK3pzu3yoZGDNV)" stroke-linecap="round"><g transform="translate(2650.805994953038 2853.693928714727) rotate(0 -1126.5987206226084 0)"><path d="M0 0 C-115.14 0, -315.3 0, -690.83 0 C-1066.37 0, -1992.8 0, -2253.2 0" stroke="#000000" stroke-width="4.5" fill="none" stroke-dasharray="8 12"></path></g><g transform="translate(2650.805994953038 2853.693928714727) rotate(0 -1126.5987206226084 0)"><path d="M-2225.01 -10.26 C-2234.16 -6.93, -2243.3 -3.6, -2253.2 0" stroke="#000000" stroke-width="4.5" fill="none"></path></g><g transform="translate(2650.805994953038 2853.693928714727) rotate(0 -1126.5987206226084 0)"><path d="M-2225.01 10.26 C-2234.16 6.93, -2243.3 3.6, -2253.2 0" stroke="#000000" stroke-width="4.5" fill="none"></path></g></g><mask id="mask-z-l_2uHwK3pzu3yoZGDNV"><rect x="0" y="0" fill="#fff" width="5004.003436198254" height="2953.693928714727"></rect><rect x="1780.6745129941273" y="2810.493928714727" fill="#000" width="358.59375" height="86.39999999999999" opacity="1"></rect></mask><g transform="translate(1780.6745129941273 2810.493928714727) rotate(0 -256.4672386636978 43.19999999999982)"><text x="0" y="0" font-family="Cascadia, Segoe UI Emoji" font-size="36px" fill="#000000" text-anchor="start" style="white-space: pre;" direction="ltr" dominant-baseline="text-before-edge">Status: 200</text><text x="0" y="43.199999999999996" font-family="Cascadia, Segoe UI Emoji" font-size="36px" fill="#000000" text-anchor="start" style="white-space: pre;" direction="ltr" dominant-baseline="text-before-edge">Data Inserted: OK</text></g><g stroke-linecap="round" transform="translate(1381.8238830511305 366.9583918931063) rotate(0 47.552632248189184 667.4965046646918)"><path d="M23.78 0 M23.78 0 C39.21 0, 54.65 0, 71.33 0 M23.78 0 C35.68 0, 47.58 0, 71.33 0 M71.33 0 C87.18 0, 95.11 7.93, 95.11 23.78 M71.33 0 C87.18 0, 95.11 7.93, 95.11 23.78 M95.11 23.78 C95.11 348.12, 95.11 672.46, 95.11 1311.22 M95.11 23.78 C95.11 470.08, 95.11 916.39, 95.11 1311.22 M95.11 1311.22 C95.11 1327.07, 87.18 1334.99, 71.33 1334.99 M95.11 1311.22 C95.11 1327.07, 87.18 1334.99, 71.33 1334.99 M71.33 1334.99 C53.97 1334.99, 36.62 1334.99, 23.78 1334.99 M71.33 1334.99 C60.96 1334.99, 50.59 1334.99, 23.78 1334.99 M23.78 1334.99 C7.93 1334.99, 0 1327.07, 0 1311.22 M23.78 1334.99 C7.93 1334.99, 0 1327.07, 0 1311.22 M0 1311.22 C0 1015.71, 0 720.2, 0 23.78 M0 1311.22 C0 1032.03, 0 752.85, 0 23.78 M0 23.78 C0 7.93, 7.93 0, 23.78 0 M0 23.78 C0 7.93, 7.93 0, 23.78 0" stroke="#000000" stroke-width="4" fill="none"></path></g><g stroke-linecap="round"><g transform="translate(1427.8123175611117 320.34864690242364) rotate(0 0 22.844278777471118)"><path d="M0 0 C0 7.61, 0 38.07, 0 45.69" stroke="#000000" stroke-width="4.5" fill="none" stroke-dasharray="8 12"></path></g></g><mask></mask><g stroke-linecap="round" transform="translate(2662.4147874612777 1688.7277331567066) rotate(0 47.552632248189184 618.2422920219792)"><path d="M23.78 0 M23.78 0 C36.26 0, 48.74 0, 71.33 0 M23.78 0 C41.77 0, 59.76 0, 71.33 0 M71.33 0 C87.18 0, 95.11 7.93, 95.11 23.78 M71.33 0 C87.18 0, 95.11 7.93, 95.11 23.78 M95.11 23.78 C95.11 455.55, 95.11 887.31, 95.11 1212.71 M95.11 23.78 C95.11 411.05, 95.11 798.33, 95.11 1212.71 M95.11 1212.71 C95.11 1228.56, 87.18 1236.48, 71.33 1236.48 M95.11 1212.71 C95.11 1228.56, 87.18 1236.48, 71.33 1236.48 M71.33 1236.48 C59.94 1236.48, 48.55 1236.48, 23.78 1236.48 M71.33 1236.48 C52.74 1236.48, 34.14 1236.48, 23.78 1236.48 M23.78 1236.48 C7.93 1236.48, 0 1228.56, 0 1212.71 M23.78 1236.48 C7.93 1236.48, 0 1228.56, 0 1212.71 M0 1212.71 C0 851.51, 0 490.32, 0 23.78 M0 1212.71 C0 781.12, 0 349.53, 0 23.78 M0 23.78 C0 7.93, 7.93 0, 23.78 0 M0 23.78 C0 7.93, 7.93 0, 23.78 0" stroke="#000000" stroke-width="4" fill="none"></path></g><g mask="url(#mask-drVlUqJoQ1LHSPgsTCB7J)" stroke-linecap="round"><g transform="translate(3916.468119819134 2780.1421747671393) rotate(0 -574.7638128853337 0)"><path d="M0 0 C-106.62 0, -448.11 0, -639.7 0 C-831.29 0, -1064.56 0, -1149.53 0" stroke="#000000" stroke-width="4.5" fill="none" stroke-dasharray="8 12"></path></g><g transform="translate(3916.468119819134 2780.1421747671393) rotate(0 -574.7638128853337 0)"><path d="M-1121.34 -10.26 C-1130.72 -6.84, -1140.11 -3.43, -1149.53 0" stroke="#000000" stroke-width="4.5" fill="none"></path></g><g transform="translate(3916.468119819134 2780.1421747671393) rotate(0 -574.7638128853337 0)"><path d="M-1121.34 10.26 C-1130.72 6.84, -1140.11 3.43, -1149.53 0" stroke="#000000" stroke-width="4.5" fill="none"></path></g></g><mask id="mask-drVlUqJoQ1LHSPgsTCB7J"><rect x="0" y="0" fill="#fff" width="5165.995745589801" height="2880.1421747671393"></rect><rect x="3139.661063035531" y="2758.542174767139" fill="#000" width="274.21875" height="43.199999999999996" opacity="1"></rect></mask><g transform="translate(3139.661063035531 2758.5421747671394) rotate(0 202.04324389826934 21.59999999999991)"><text x="0" y="0" font-family="Cascadia, Segoe UI Emoji" font-size="36px" fill="#000000" text-anchor="start" style="white-space: pre;" direction="ltr" dominant-baseline="text-before-edge">Data Inserted</text></g><g stroke-linecap="round" transform="translate(3924.757462238317 2004.3937638189582) rotate(0 47.552632248189184 408.2598806762103)"><path d="M23.78 0 M23.78 0 C35.58 0, 47.38 0, 71.33 0 M23.78 0 C37.75 0, 51.73 0, 71.33 0 M71.33 0 C87.18 0, 95.11 7.93, 95.11 23.78 M71.33 0 C87.18 0, 95.11 7.93, 95.11 23.78 M95.11 23.78 C95.11 183.89, 95.11 344, 95.11 792.74 M95.11 23.78 C95.11 314.99, 95.11 606.21, 95.11 792.74 M95.11 792.74 C95.11 808.59, 87.18 816.52, 71.33 816.52 M95.11 792.74 C95.11 808.59, 87.18 816.52, 71.33 816.52 M71.33 816.52 C60.81 816.52, 50.29 816.52, 23.78 816.52 M71.33 816.52 C57.44 816.52, 43.55 816.52, 23.78 816.52 M23.78 816.52 C7.93 816.52, 0 808.59, 0 792.74 M23.78 816.52 C7.93 816.52, 0 808.59, 0 792.74 M0 792.74 C0 528.26, 0 263.77, 0 23.78 M0 792.74 C0 531.76, 0 270.78, 0 23.78 M0 23.78 C0 7.93, 7.93 0, 23.78 0 M0 23.78 C0 7.93, 7.93 0, 23.78 0" stroke="#000000" stroke-width="4" fill="none"></path></g><g stroke-linecap="round"><g transform="translate(3972.433833359839 2821.360471718188) rotate(0 4.547473508864641e-13 104.05311215656775)"><path d="M0 0 C0 34.68, 0 173.42, 0 208.11" stroke="#000000" stroke-width="4.5" fill="none" stroke-dasharray="8 12"></path></g></g><mask></mask></svg>