<svg version="1.1" xmlns="http://www.w3.org/2000/svg" viewBox="0 0 1732.638146536933 1732.638146536933" width="1732.638146536933" height="1732.638146536933">
  <!-- svg-source:excalidraw -->
  
  <defs>
    <style class="style-fonts">
      @font-face {
        font-family: "Virgil";
        src: url("https://excalidraw.com/Virgil.woff2");
      }
      @font-face {
        font-family: "Cascadia";
        src: url("https://excalidraw.com/Cascadia.woff2");
      }
    </style>
  </defs>
  <rect x="0" y="0" width="1732.638146536933" height="1732.638146536933" fill="#ffffff"></rect><g stroke-linecap="round" transform="translate(1319.1911280474592 1074.727490733962) rotate(0 135.06076049804688 116.92521344876275)"><path d="M0 0 C86.99 0, 173.98 0, 270.12 0 M0 0 C107.23 0, 214.46 0, 270.12 0 M270.12 0 C270.12 72.67, 270.12 145.33, 270.12 233.85 M270.12 0 C270.12 84.21, 270.12 168.42, 270.12 233.85 M270.12 233.85 C177.8 233.85, 85.47 233.85, 0 233.85 M270.12 233.85 C210.74 233.85, 151.36 233.85, 0 233.85 M0 233.85 C0 157.53, 0 81.22, 0 0 M0 233.85 C0 144.58, 0 55.3, 0 0" stroke="#000000" stroke-width="4" fill="none"></path></g><g stroke-linecap="round"><g transform="translate(1321.6164820513654 1113.2841008413839) rotate(0 134.69192504882812 -0.861907958984375)"><path d="M0 0 C44.9 -0.29, 224.49 -1.44, 269.38 -1.72 M0 0 C44.9 -0.29, 224.49 -1.44, 269.38 -1.72" stroke="#000000" stroke-width="4" fill="none"></path></g></g><mask></mask><g stroke-linecap="round" transform="translate(1320.1139626443091 1309.3386811916234) rotate(0 135.03377873825843 74.37430713812353)"><path d="M0 0 C88.56 0, 177.12 0, 270.07 0 M0 0 C106.89 0, 213.78 0, 270.07 0 M270.07 0 C270.07 41.2, 270.07 82.4, 270.07 148.75 M270.07 0 C270.07 54.25, 270.07 108.49, 270.07 148.75 M270.07 148.75 C192.54 148.75, 115.02 148.75, 0 148.75 M270.07 148.75 C198.05 148.75, 126.03 148.75, 0 148.75 M0 148.75 C0 91.86, 0 34.98, 0 0 M0 148.75 C0 108.23, 0 67.72, 0 0" stroke="#000000" stroke-width="4" fill="none"></path></g><g transform="translate(1415.8084071001936 1084.1680659402723) rotate(0 35 9.5)"><text x="0" y="0" font-family="Helvetica, Segoe UI Emoji" font-size="16px" fill="#000000" text-anchor="start" style="white-space: pre;" direction="ltr" dominant-baseline="text-before-edge">Database</text></g><g transform="translate(1339.5409988611086 1167.1832356634131) rotate(0 68 9.5)"><text x="0" y="0" font-family="Helvetica, Segoe UI Emoji" font-size="16px" fill="#000000" text-anchor="start" style="white-space: pre;" direction="ltr" dominant-baseline="text-before-edge">+Username: String</text></g><g transform="translate(1339.5409988611086 1235.3869381942668) rotate(0 63.5 9.5)"><text x="0" y="0" font-family="Helvetica, Segoe UI Emoji" font-size="16px" fill="#000000" text-anchor="start" style="white-space: pre;" direction="ltr" dominant-baseline="text-before-edge">+Message: String</text></g><g transform="translate(1339.5409988611086 1201.28508692884) rotate(0 59.5 9.5)"><text x="0" y="0" font-family="Helvetica, Segoe UI Emoji" font-size="16px" fill="#000000" text-anchor="start" style="white-space: pre;" direction="ltr" dominant-baseline="text-before-edge">+MessageID: Int</text></g><g transform="translate(1339.5409988611086 1133.081384397986) rotate(0 44 9.5)"><text x="0" y="0" font-family="Helvetica, Segoe UI Emoji" font-size="16px" fill="#000000" text-anchor="start" style="white-space: pre;" direction="ltr" dominant-baseline="text-before-edge">+UserID: Int</text></g><g transform="translate(1339.5409988611086 1269.4887894596936) rotate(0 49.5 9.5)"><text x="0" y="0" font-family="Helvetica, Segoe UI Emoji" font-size="16px" fill="#000000" text-anchor="start" style="white-space: pre;" direction="ltr" dominant-baseline="text-before-edge">+Secret: Bool</text></g><g transform="translate(1339.4225898561886 1328.8949728270659) rotate(0 63.5 9.5)"><text x="0" y="0" font-family="Helvetica, Segoe UI Emoji" font-size="16px" fill="#000000" text-anchor="start" style="white-space: pre;" direction="ltr" dominant-baseline="text-before-edge">+POSTClipData()</text></g><g transform="translate(1339.4225898561886 1359.034115642655) rotate(0 58 9.5)"><text x="0" y="0" font-family="Helvetica, Segoe UI Emoji" font-size="16px" fill="#000000" text-anchor="start" style="white-space: pre;" direction="ltr" dominant-baseline="text-before-edge">+GETClipData()</text></g><g transform="translate(1339.4225898561886 1389.1732584582442) rotate(0 72 9.5)"><text x="0" y="0" font-family="Helvetica, Segoe UI Emoji" font-size="16px" fill="#000000" text-anchor="start" style="white-space: pre;" direction="ltr" dominant-baseline="text-before-edge">+GETALLClipData()</text></g><g transform="translate(1339.4225898561886 1419.3124012738333) rotate(0 81.5 9.5)"><text x="0" y="0" font-family="Helvetica, Segoe UI Emoji" font-size="16px" fill="#000000" text-anchor="start" style="white-space: pre;" direction="ltr" dominant-baseline="text-before-edge">+DELETEAllClipData()</text></g><g stroke-linecap="round" transform="translate(141.63781438791125 274.5508510690629) rotate(0 135.06076049804688 91.90530512726093)"><path d="M0 0 C74.81 0, 149.63 0, 270.12 0 M0 0 C98.51 0, 197.02 0, 270.12 0 M270.12 0 C270.12 52.76, 270.12 105.53, 270.12 183.81 M270.12 0 C270.12 49.02, 270.12 98.04, 270.12 183.81 M270.12 183.81 C166.82 183.81, 63.52 183.81, 0 183.81 M270.12 183.81 C196.55 183.81, 122.97 183.81, 0 183.81 M0 183.81 C0 144.47, 0 105.13, 0 0 M0 183.81 C0 132.27, 0 80.72, 0 0" stroke="#000000" stroke-width="4" fill="none"></path></g><g stroke-linecap="round"><g transform="translate(144.0631683918175 313.1074611764848) rotate(0 134.69192504882812 -0.861907958984375)"><path d="M0 0 C44.9 -0.29, 224.49 -1.44, 269.38 -1.72 M0 0 C44.9 -0.29, 224.49 -1.44, 269.38 -1.72" stroke="#000000" stroke-width="4" fill="none"></path></g></g><mask></mask><g stroke-linecap="round" transform="translate(142.31659611225842 458.37629908477993) rotate(0 135.03377873825846 29.99226985982341)"><path d="M0 0 C67.83 0, 135.66 0, 270.07 0 M0 0 C58.36 0, 116.73 0, 270.07 0 M270.07 0 C270.07 15.01, 270.07 30.03, 270.07 59.98 M270.07 0 C270.07 19.69, 270.07 39.38, 270.07 59.98 M270.07 59.98 C188.7 59.98, 107.33 59.98, 0 59.98 M270.07 59.98 C194.55 59.98, 119.04 59.98, 0 59.98 M0 59.98 C0 40.53, 0 21.07, 0 0 M0 59.98 C0 43.33, 0 26.68, 0 0" stroke="#000000" stroke-width="4" fill="none"></path></g><g transform="translate(259.7550934406456 283.9914262753732) rotate(0 18 9.5)"><text x="0" y="0" font-family="Helvetica, Segoe UI Emoji" font-size="16px" fill="#000000" text-anchor="start" style="white-space: pre;" direction="ltr" dominant-baseline="text-before-edge">User</text></g><g transform="translate(161.82634351170947 332.7641011963601) rotate(0 64.5 9.5)"><text x="0" y="0" font-family="Helvetica, Segoe UI Emoji" font-size="16px" fill="#000000" text-anchor="start" style="white-space: pre;" direction="ltr" dominant-baseline="text-before-edge">-username: String</text></g><g transform="translate(161.82634351170947 362.1146225195257) rotate(0 63 9.5)"><text x="0" y="0" font-family="Helvetica, Segoe UI Emoji" font-size="16px" fill="#000000" text-anchor="start" style="white-space: pre;" direction="ltr" dominant-baseline="text-before-edge">-password: String</text></g><g transform="translate(161.82634351170947 391.4651438426928) rotate(0 43 9.5)"><text x="0" y="0" font-family="Helvetica, Segoe UI Emoji" font-size="16px" fill="#000000" text-anchor="start" style="white-space: pre;" direction="ltr" dominant-baseline="text-before-edge">-pCount: Int</text></g><g transform="translate(161.82634351170947 420.8156651658584) rotate(0 47 9.5)"><text x="0" y="0" font-family="Helvetica, Segoe UI Emoji" font-size="16px" fill="#000000" text-anchor="start" style="white-space: pre;" direction="ltr" dominant-baseline="text-before-edge">-spCount: Int</text></g><g transform="translate(163.7756772777363 477.8595475592391) rotate(0 81 9.5)"><text x="0" y="0" font-family="Helvetica, Segoe UI Emoji" font-size="16px" fill="#000000" text-anchor="start" style="white-space: pre;" direction="ltr" dominant-baseline="text-before-edge">+verifyAuthentication()</text></g><g stroke-linecap="round" transform="translate(676.2816703955053 1074.727490733962) rotate(0 135.06076049804688 116.92521344876275)"><path d="M0 0 C92.32 0, 184.65 0, 270.12 0 M0 0 C59.38 0, 118.76 0, 270.12 0 M270.12 0 C270.12 76.32, 270.12 152.63, 270.12 233.85 M270.12 0 C270.12 89.27, 270.12 178.55, 270.12 233.85 M270.12 233.85 C213.8 233.85, 157.48 233.85, 0 233.85 M270.12 233.85 C196.32 233.85, 122.51 233.85, 0 233.85 M0 233.85 C0 168.17, 0 102.48, 0 0 M0 233.85 C0 145.51, 0 57.18, 0 0" stroke="#000000" stroke-width="4" fill="none"></path></g><g stroke-linecap="round"><g transform="translate(678.7070243994116 1113.2841008413839) rotate(0 134.69192504882812 -0.861907958984375)"><path d="M0 0 C44.9 -0.29, 224.49 -1.44, 269.38 -1.72 M0 0 C44.9 -0.29, 224.49 -1.44, 269.38 -1.72" stroke="#000000" stroke-width="4" fill="none"></path></g></g><mask></mask><g stroke-linecap="round" transform="translate(677.2045049923553 1309.338681191624) rotate(0 135.03377873825846 23.748015859621773)"><path d="M0 0 C77.52 0, 155.05 0, 270.07 0 M0 0 C72.02 0, 144.04 0, 270.07 0 M270.07 0 C270.07 18.16, 270.07 36.33, 270.07 47.5 M270.07 0 C270.07 12.94, 270.07 25.87, 270.07 47.5 M270.07 47.5 C212.27 47.5, 154.46 47.5, 0 47.5 M270.07 47.5 C194.33 47.5, 118.6 47.5, 0 47.5 M0 47.5 C0 29.68, 0 11.87, 0 0 M0 47.5 C0 30.78, 0 14.07, 0 0" stroke="#000000" stroke-width="4" fill="none"></path></g><g transform="translate(790.8989494482397 1084.1680659402723) rotate(0 18 9.5)"><text x="0" y="0" font-family="Helvetica, Segoe UI Emoji" font-size="16px" fill="#000000" text-anchor="start" style="white-space: pre;" direction="ltr" dominant-baseline="text-before-edge">Data</text></g><g transform="translate(696.6315412091548 1167.1832356634136) rotate(0 68 9.5)"><text x="0" y="0" font-family="Helvetica, Segoe UI Emoji" font-size="16px" fill="#000000" text-anchor="start" style="white-space: pre;" direction="ltr" dominant-baseline="text-before-edge">+Username: String</text></g><g transform="translate(696.6315412091548 1235.3869381942675) rotate(0 63.5 9.5)"><text x="0" y="0" font-family="Helvetica, Segoe UI Emoji" font-size="16px" fill="#000000" text-anchor="start" style="white-space: pre;" direction="ltr" dominant-baseline="text-before-edge">+Message: String</text></g><g transform="translate(696.6315412091548 1201.28508692884) rotate(0 59.5 9.5)"><text x="0" y="0" font-family="Helvetica, Segoe UI Emoji" font-size="16px" fill="#000000" text-anchor="start" style="white-space: pre;" direction="ltr" dominant-baseline="text-before-edge">+MessageID: Int</text></g><g transform="translate(696.6315412091548 1133.0813843979863) rotate(0 44 9.5)"><text x="0" y="0" font-family="Helvetica, Segoe UI Emoji" font-size="16px" fill="#000000" text-anchor="start" style="white-space: pre;" direction="ltr" dominant-baseline="text-before-edge">+UserID: Int</text></g><g transform="translate(696.6315412091548 1269.4887894596939) rotate(0 49.5 9.5)"><text x="0" y="0" font-family="Helvetica, Segoe UI Emoji" font-size="16px" fill="#000000" text-anchor="start" style="white-space: pre;" direction="ltr" dominant-baseline="text-before-edge">+Secret: Bool</text></g><g transform="translate(694.7177263086352 834.721129992502) rotate(0 37 9.5)"><text x="0" y="0" font-family="Helvetica, Segoe UI Emoji" font-size="16px" fill="#000000" text-anchor="start" style="white-space: pre;" direction="ltr" dominant-baseline="text-before-edge">+SignUp()</text></g><g transform="translate(694.7177263086352 870.1374945538478) rotate(0 74 9.5)"><text x="0" y="0" font-family="Helvetica, Segoe UI Emoji" font-size="16px" fill="#000000" text-anchor="start" style="white-space: pre;" direction="ltr" dominant-baseline="text-before-edge">+ChangePassword()</text></g><g stroke-linecap="round" transform="translate(676.6762812486801 575.3785489685855) rotate(0 135.06076049804688 48.07907185466644)"><path d="M0 0 C88.15 0, 176.31 0, 270.12 0 M0 0 C103.12 0, 206.24 0, 270.12 0 M270.12 0 C270.12 20.05, 270.12 40.1, 270.12 96.16 M270.12 0 C270.12 26.27, 270.12 52.55, 270.12 96.16 M270.12 96.16 C194.25 96.16, 118.38 96.16, 0 96.16 M270.12 96.16 C168.08 96.16, 66.04 96.16, 0 96.16 M0 96.16 C0 76.9, 0 57.65, 0 0 M0 96.16 C0 60.64, 0 25.13, 0 0" stroke="#000000" stroke-width="4" fill="none"></path></g><g stroke-linecap="round"><g transform="translate(679.1016352525863 613.9351590760074) rotate(0 134.69192504882812 -0.861907958984375)"><path d="M0 0 C44.9 -0.29, 224.49 -1.44, 269.38 -1.72 M0 0 C44.9 -0.29, 224.49 -1.44, 269.38 -1.72" stroke="#000000" stroke-width="4" fill="none"></path></g></g><mask></mask><g transform="translate(749.7935603014143 584.8191241748958) rotate(0 59 9.5)"><text x="0" y="0" font-family="Helvetica, Segoe UI Emoji" font-size="16px" fill="#000000" text-anchor="start" style="white-space: pre;" direction="ltr" dominant-baseline="text-before-edge">Registered User</text></g><g transform="translate(695.253304722758 631.2266946699777) rotate(0 67 9.5)"><text x="0" y="0" font-family="Helvetica, Segoe UI Emoji" font-size="16px" fill="#000000" text-anchor="start" style="white-space: pre;" direction="ltr" dominant-baseline="text-before-edge">-JWTToken: String</text></g><g stroke-linecap="round" transform="translate(675.8870595423306 672.9005484434398) rotate(0 135.03377873825846 115.11306463140471)"><path d="M0 0 C81.37 0, 162.74 0, 270.07 0 M0 0 C75.52 0, 151.03 0, 270.07 0 M270.07 0 C270.07 74.68, 270.07 149.36, 270.07 230.23 M270.07 0 C270.07 63.92, 270.07 127.83, 270.07 230.23 M270.07 230.23 C168.56 230.23, 67.05 230.23, 0 230.23 M270.07 230.23 C162.48 230.23, 54.9 230.23, 0 230.23 M0 230.23 C0 169.52, 0 108.82, 0 0 M0 230.23 C0 156.34, 0 82.45, 0 0" stroke="#000000" stroke-width="4" fill="none"></path></g><g transform="translate(694.7177263086352 693.0556717471201) rotate(0 50.5 9.5)"><text x="0" y="0" font-family="Helvetica, Segoe UI Emoji" font-size="16px" fill="#000000" text-anchor="start" style="white-space: pre;" direction="ltr" dominant-baseline="text-before-edge">+isValidJWT()</text></g><g transform="translate(694.7177263086352 728.4720363084657) rotate(0 45 9.5)"><text x="0" y="0" font-family="Helvetica, Segoe UI Emoji" font-size="16px" fill="#000000" text-anchor="start" style="white-space: pre;" direction="ltr" dominant-baseline="text-before-edge">+FetchClip()</text></g><g transform="translate(694.7177263086352 763.888400869811) rotate(0 49 9.5)"><text x="0" y="0" font-family="Helvetica, Segoe UI Emoji" font-size="16px" fill="#000000" text-anchor="start" style="white-space: pre;" direction="ltr" dominant-baseline="text-before-edge">+CreateClip()</text></g><g transform="translate(694.7177263086352 799.3047654311567) rotate(0 52 9.5)"><text x="0" y="0" font-family="Helvetica, Segoe UI Emoji" font-size="16px" fill="#000000" text-anchor="start" style="white-space: pre;" direction="ltr" dominant-baseline="text-before-edge">+DeleteClips()</text></g><g stroke-linecap="round" transform="translate(676.4185330891157 274.5508510690629) rotate(0 135.06076049804688 34.97601026555924)"><path d="M0 0 C94.87 0, 189.73 0, 270.12 0 M0 0 C57.76 0, 115.52 0, 270.12 0 M270.12 0 C270.12 20.33, 270.12 40.66, 270.12 69.95 M270.12 0 C270.12 18.7, 270.12 37.41, 270.12 69.95 M270.12 69.95 C164.55 69.95, 58.97 69.95, 0 69.95 M270.12 69.95 C190.34 69.95, 110.56 69.95, 0 69.95 M0 69.95 C0 51.57, 0 33.2, 0 0 M0 69.95 C0 52.87, 0 35.79, 0 0" stroke="#000000" stroke-width="4" fill="none"></path></g><g stroke-linecap="round"><g transform="translate(678.843887093022 313.10746117648466) rotate(0 134.69192504882812 -0.861907958984375)"><path d="M0 0 C44.9 -0.29, 224.49 -1.44, 269.38 -1.72 M0 0 C44.9 -0.29, 224.49 -1.44, 269.38 -1.72" stroke="#000000" stroke-width="4" fill="none"></path></g></g><mask></mask><g transform="translate(742.0358121418501 283.9914262753732) rotate(0 66 9.5)"><text x="0" y="0" font-family="Helvetica, Segoe UI Emoji" font-size="16px" fill="#000000" text-anchor="start" style="white-space: pre;" direction="ltr" dominant-baseline="text-before-edge">Unregistered User</text></g><g stroke-linecap="round" transform="translate(676.1448077018949 344.04934760685944) rotate(0 135.03377873825846 29.86419416700653)"><path d="M0 0 C72.84 0, 145.68 0, 270.07 0 M0 0 C97.59 0, 195.17 0, 270.07 0 M270.07 0 C270.07 15, 270.07 30, 270.07 59.73 M270.07 0 C270.07 19.77, 270.07 39.55, 270.07 59.73 M270.07 59.73 C174.32 59.73, 78.57 59.73, 0 59.73 M270.07 59.73 C202.36 59.73, 134.65 59.73, 0 59.73 M0 59.73 C0 45.39, 0 31.04, 0 0 M0 59.73 C0 44.23, 0 28.73, 0 0" stroke="#000000" stroke-width="4" fill="none"></path></g><g transform="translate(696.4085203801528 364.644385565457) rotate(0 26 9.5)"><text x="0" y="0" font-family="Helvetica, Segoe UI Emoji" font-size="16px" fill="#000000" text-anchor="start" style="white-space: pre;" direction="ltr" dominant-baseline="text-before-edge">Login()</text></g><g stroke-linecap="round" transform="translate(1319.1911280474592 673.2477078688843) rotate(0 135.06076049804688 35.08560803077131)"><path d="M0 0 C91.84 0, 183.68 0, 270.12 0 M0 0 C90.26 0, 180.52 0, 270.12 0 M270.12 0 C270.12 23.83, 270.12 47.66, 270.12 70.17 M270.12 0 C270.12 16.27, 270.12 32.53, 270.12 70.17 M270.12 70.17 C166.41 70.17, 62.69 70.17, 0 70.17 M270.12 70.17 C173.25 70.17, 76.38 70.17, 0 70.17 M0 70.17 C0 55.95, 0 41.73, 0 0 M0 70.17 C0 44.72, 0 19.28, 0 0" stroke="#000000" stroke-width="4" fill="none"></path></g><g stroke-linecap="round"><g transform="translate(1321.6164820513654 711.8043179763062) rotate(0 134.69192504882812 -0.861907958984375)"><path d="M0 0 C44.9 -0.29, 224.49 -1.44, 269.38 -1.72 M0 0 C44.9 -0.29, 224.49 -1.44, 269.38 -1.72" stroke="#000000" stroke-width="4" fill="none"></path></g></g><mask></mask><g stroke-linecap="round" transform="translate(1320.1139626443091 742.8403012601989) rotate(0 135.03377873825843 80.14318822302516)"><path d="M0 0 C86.16 0, 172.32 0, 270.07 0 M0 0 C73.08 0, 146.16 0, 270.07 0 M270.07 0 C270.07 40.94, 270.07 81.88, 270.07 160.29 M270.07 0 C270.07 58.99, 270.07 117.97, 270.07 160.29 M270.07 160.29 C170.39 160.29, 70.7 160.29, 0 160.29 M270.07 160.29 C180.19 160.29, 90.3 160.29, 0 160.29 M0 160.29 C0 124.78, 0 89.27, 0 0 M0 160.29 C0 102.69, 0 45.09, 0 0" stroke="#000000" stroke-width="4" fill="none"></path></g><g transform="translate(1414.3084071001936 682.6882830751946) rotate(0 40 9.5)"><text x="0" y="0" font-family="Helvetica, Segoe UI Emoji" font-size="16px" fill="#000000" text-anchor="start" style="white-space: pre;" direction="ltr" dominant-baseline="text-before-edge">Application</text></g><g transform="translate(1339.521469908097 762.3841615119959) rotate(0 88.5 9.5)"><text x="0" y="0" font-family="Helvetica, Segoe UI Emoji" font-size="16px" fill="#000000" text-anchor="start" style="white-space: pre;" direction="ltr" dominant-baseline="text-before-edge">+VerifyUserCredentials()</text></g><g transform="translate(1339.521469908097 866.4630518208878) rotate(0 73 9.5)"><text x="0" y="0" font-family="Helvetica, Segoe UI Emoji" font-size="16px" fill="#000000" text-anchor="start" style="white-space: pre;" direction="ltr" dominant-baseline="text-before-edge">+VerifyDataFormat()</text></g><g transform="translate(1339.521469908097 797.0771249482927) rotate(0 67.5 9.5)"><text x="0" y="0" font-family="Helvetica, Segoe UI Emoji" font-size="16px" fill="#000000" text-anchor="start" style="white-space: pre;" direction="ltr" dominant-baseline="text-before-edge">+CheckDBStatus()</text></g><g transform="translate(1339.521469908097 831.7700883845905) rotate(0 57.5 9.5)"><text x="0" y="0" font-family="Helvetica, Segoe UI Emoji" font-size="16px" fill="#000000" text-anchor="start" style="white-space: pre;" direction="ltr" dominant-baseline="text-before-edge">+SetupRoutes()</text></g><g mask="url(#mask-Mh0U_VMms0H1s2QzUHRk_)" stroke-linecap="round"><g transform="translate(369.1316637500016 422.13039713043383) rotate(42.899202342264964 184.66825947039047 -2.8555203205525004)"><path d="M0 0 C61.56 -0.95, 307.78 -4.76, 369.34 -5.71 M0 0 C61.56 -0.95, 307.78 -4.76, 369.34 -5.71" stroke="#000000" stroke-width="4" fill="none"></path></g></g><mask id="mask-Mh0U_VMms0H1s2QzUHRk_"><rect x="0" y="0" fill="#fff" width="838.4681826907826" height="527.8414377715388"></rect><rect x="526.7999232203921" y="409.7748768098812" fill="#000" width="54" height="19" opacity="1"></rect></mask><g transform="translate(526.7999232203921 409.77487680988133) rotate(0 27 9.5)"><text x="27" y="0" font-family="Helvetica, Segoe UI Emoji" font-size="16px" fill="#000000" text-anchor="middle" style="white-space: pre;" direction="ltr" dominant-baseline="text-before-edge">Inherits</text></g><g stroke-linecap="round"><g transform="translate(692.8103265117119 521.9422236438098) rotate(42.899202342264964 -0.9033462780982191 23.156398099695593)"><path d="M0 0 C-0.3 7.72, -1.51 38.59, -1.81 46.31 M0 0 C-0.3 7.72, -1.51 38.59, -1.81 46.31" stroke="#000000" stroke-width="4" fill="none"></path></g></g><mask></mask><g stroke-linecap="round"><g transform="translate(693.6980531773049 535.6058422125581) rotate(42.899202342264964 23.527977898420232 12.478190259322787)"><path d="M0 0 C7.84 4.16, 39.21 20.8, 47.06 24.96 M0 0 C7.84 4.16, 39.21 20.8, 47.06 24.96" stroke="#000000" stroke-width="4" fill="none"></path></g></g><mask></mask><g stroke-linecap="round"><g transform="translate(726.7763941141413 557.0773086974743) rotate(42.899202342264964 -22.018101838720412 11.644039297226868)"><path d="M0 0 C-7.34 3.88, -36.7 19.41, -44.04 23.29 M0 0 C-7.34 3.88, -36.7 19.41, -44.04 23.29" stroke="#000000" stroke-width="4" fill="none"></path></g></g><mask></mask><g mask="url(#mask-jzmvoQL-QrV5xmqkSi9Zm)" stroke-linecap="round"><g transform="translate(411.7471229818738 296.2093824534537) rotate(361.3946440688008 118.12358813594611 -1.8265418606647472)"><path d="M0 0 C39.37 -0.61, 196.87 -3.04, 236.25 -3.65 M0 0 C39.37 -0.61, 196.87 -3.04, 236.25 -3.65" stroke="#000000" stroke-width="4" fill="none"></path></g></g><mask id="mask-jzmvoQL-QrV5xmqkSi9Zm"><rect x="0" y="0" fill="#fff" width="747.994299253766" height="399.8624661747832"></rect><rect x="502.8707111178199" y="284.88284059278897" fill="#000" width="54" height="19" opacity="1"></rect></mask><g transform="translate(502.87071111781995 284.88284059278897) rotate(0 27 9.5)"><text x="27" y="0" font-family="Helvetica, Segoe UI Emoji" font-size="16px" fill="#000000" text-anchor="middle" style="white-space: pre;" direction="ltr" dominant-baseline="text-before-edge">Inherits</text></g><g stroke-linecap="round"><g transform="translate(650.047547518791 282.2725419626248) rotate(361.3946440688008 -0.5778280685822104 14.812057251663362)"><path d="M0 0 C-0.19 4.94, -0.96 24.69, -1.16 29.62 M0 0 C-0.19 4.94, -0.96 24.69, -1.16 29.62" stroke="#000000" stroke-width="4" fill="none"></path></g></g><mask></mask><g stroke-linecap="round"><g transform="translate(648.2060764045493 279.892699115137) rotate(361.3946440688008 15.049739348359708 7.981710615031574)"><path d="M0 0 C5.02 2.66, 25.08 13.3, 30.1 15.96 M0 0 C5.02 2.66, 25.08 13.3, 30.1 15.96" stroke="#000000" stroke-width="4" fill="none"></path></g></g><mask></mask><g stroke-linecap="round"><g transform="translate(678.1267086113012 295.26451379221) rotate(361.3946440688008 -14.083942744634719 7.448143531156916)"><path d="M0 0 C-4.69 2.48, -23.47 12.41, -28.17 14.9 M0 0 C-4.69 2.48, -23.47 12.41, -28.17 14.9" stroke="#000000" stroke-width="4" fill="none"></path></g></g><mask></mask><g stroke-linecap="round"><g transform="translate(796.3012667189639 1076.4995914552915) rotate(0 0.1853670890071868 -86.89452205322516)"><path d="M0 0 C0.06 -28.96, 0.31 -144.82, 0.37 -173.79 M0 0 C0.06 -28.96, 0.31 -144.82, 0.37 -173.79" stroke="#000000" stroke-width="4" fill="none"></path></g></g><mask></mask><g mask="url(#mask-Af_E4BcO0SKQS8qT82QY2)" stroke-linecap="round"><g transform="translate(940.1223061209517 636.1615647989665) rotate(15.466264340010548 165.84724190964727 -1.7669569247412937)"><path d="M0 0 C55.28 -0.59, 276.41 -2.94, 331.69 -3.53 M0 0 C55.28 -0.59, 276.41 -2.94, 331.69 -3.53" stroke="#000000" stroke-width="1" fill="none"></path></g></g><mask id="mask-Af_E4BcO0SKQS8qT82QY2"><rect x="0" y="0" fill="#fff" width="1371.8167899402463" height="739.6954786484491"></rect><rect x="1086.969548030599" y="624.8946078742251" fill="#000" width="38" height="19" opacity="1"></rect></mask><g transform="translate(1086.969548030599 624.8946078742252) rotate(0 19 9.5)"><text x="19" y="0" font-family="Helvetica, Segoe UI Emoji" font-size="16px" fill="#000000" text-anchor="middle" style="white-space: pre;" direction="ltr" dominant-baseline="text-before-edge">Uses</text></g><g stroke-linecap="round" transform="translate(1266.7792437969572 658.5795810717144) rotate(15.466264340010548 25.0562077290856 23.840802550980868)"><path d="M26 0 C31.19 5.17, 36.38 10.33, 50.11 24 M26 0 C31.4 5.37, 36.8 10.75, 50.11 24 M50.11 24 C41.31 32.64, 32.51 41.29, 26 47.68 M50.11 24 C43.71 30.29, 37.31 36.57, 26 47.68 M26 47.68 C15.63 38.24, 5.27 28.8, 0 24 M26 47.68 C19.39 41.66, 12.78 35.64, 0 24 M0 24 C10.1 14.67, 20.21 5.35, 26 0 M0 24 C8.3 16.34, 16.59 8.68, 26 0" stroke="#000000" stroke-width="1" fill="none"></path></g><g transform="translate(1277.314389854677 683.0558514310428) rotate(15.466264340010548 14.947774287071866 -0.3246426362660486)" stroke="none"><path fill="#000000" d="M -1.69,-1.97 Q -1.69,-1.97 -1.30,-2.35 -0.92,-2.74 -0.17,-3.81 0.58,-4.89 1.47,-6.00 2.36,-7.11 3.30,-8.12 4.24,-9.12 5.04,-9.93 5.84,-10.74 7.18,-11.51 8.52,-12.28 9.73,-12.86 10.95,-13.44 11.92,-14.25 12.90,-15.05 14.30,-15.82 15.69,-16.58 17.07,-16.32 18.44,-16.06 19.57,-14.78 20.70,-13.49 21.38,-12.48 22.06,-11.47 23.00,-10.95 23.94,-10.43 24.72,-9.63 25.51,-8.83 26.60,-8.42 27.70,-8.01 28.91,-7.54 30.13,-7.08 31.08,-6.46 32.02,-5.85 33.27,-4.42 34.51,-2.99 34.62,-1.86 34.73,-0.74 34.07,0.48 33.41,1.71 32.57,2.58 31.73,3.45 30.64,4.45 29.54,5.45 28.41,6.16 27.27,6.88 26.30,7.42 25.34,7.95 24.02,8.52 22.71,9.09 21.30,9.47 19.89,9.85 18.62,10.34 17.34,10.83 16.13,11.19 14.92,11.56 13.78,11.71 12.63,11.86 11.24,11.80 9.84,11.75 7.96,11.42 6.07,11.09 4.58,10.56 3.10,10.03 1.30,9.29 -0.50,8.55 -1.81,6.55 -3.13,4.55 -2.81,3.49 -2.49,2.42 -1.22,1.70 0.05,0.98 1.22,0.44 2.39,-0.09 3.91,-0.58 5.44,-1.08 6.48,-1.31 7.52,-1.55 9.19,-2.18 10.87,-2.81 11.71,-3.53 12.56,-4.24 12.70,-5.32 12.84,-6.39 13.33,-7.66 13.82,-8.94 13.63,-10.35 13.44,-11.77 13.44,-13.22 13.43,-14.67 13.68,-15.93 13.93,-17.18 14.00,-17.66 14.07,-18.14 14.22,-18.56 14.37,-18.98 14.62,-19.35 14.87,-19.72 15.20,-20.03 15.54,-20.33 15.93,-20.54 16.32,-20.76 16.76,-20.87 17.19,-20.98 17.64,-20.99 18.09,-21.00 18.53,-20.89 18.96,-20.79 19.36,-20.59 19.76,-20.39 20.10,-20.10 20.44,-19.80 20.70,-19.44 20.96,-19.07 21.13,-18.65 21.29,-18.24 21.35,-17.79 21.41,-17.35 21.37,-16.90 21.32,-16.46 21.20,-15.38 21.08,-14.30 21.16,-12.98 21.24,-11.65 21.37,-10.58 21.50,-9.51 21.70,-8.44 21.89,-7.36 22.05,-6.25 22.20,-5.14 22.37,-3.96 22.53,-2.79 22.40,-1.43 22.26,-0.07 22.21,1.09 22.16,2.25 22.02,3.57 21.89,4.88 21.47,6.16 21.05,7.44 20.52,8.39 19.99,9.34 19.27,8.07 18.54,6.79 19.31,7.54 20.09,8.28 20.45,9.55 20.81,10.81 20.58,12.43 20.35,14.06 20.22,12.82 20.09,11.58 20.39,13.24 20.68,14.91 18.96,14.14 17.25,13.37 16.06,13.48 14.88,13.58 15.80,12.51 16.72,11.44 17.78,10.44 18.85,9.44 19.90,8.42 20.95,7.40 21.81,6.60 22.66,5.80 23.58,5.08 24.49,4.36 25.35,3.72 26.20,3.08 27.11,2.45 28.02,1.83 29.08,1.16 30.13,0.50 30.69,1.63 31.24,2.77 30.22,1.89 29.19,1.01 27.40,-0.09 25.62,-1.20 23.95,-2.18 22.27,-3.17 21.36,-3.77 20.44,-4.37 19.71,-5.45 18.98,-6.52 18.60,-7.56 18.23,-8.59 17.93,-9.62 17.63,-10.64 17.24,-11.82 16.85,-13.00 15.84,-12.56 14.82,-12.12 14.98,-11.00 15.14,-9.88 15.06,-8.64 14.99,-7.41 14.88,-6.22 14.77,-5.03 14.63,-3.83 14.49,-2.64 14.23,-1.44 13.98,-0.23 13.67,0.95 13.36,2.14 13.00,3.31 12.64,4.47 12.32,5.62 12.00,6.76 11.73,5.67 11.47,4.58 10.55,3.90 9.62,3.22 10.89,3.49 12.16,3.76 13.43,4.57 14.70,5.39 16.50,6.23 18.30,7.07 18.69,8.19 19.08,9.31 18.81,10.84 18.54,12.38 17.01,13.64 15.48,14.91 13.94,14.98 12.40,15.05 11.29,14.89 10.18,14.73 9.03,14.38 7.89,14.03 6.80,13.42 5.71,12.81 4.60,12.30 3.48,11.80 2.54,10.90 1.59,10.01 2.60,10.66 3.60,11.32 2.40,10.73 1.21,10.15 0.14,9.66 -0.92,9.17 -2.11,8.90 -3.30,8.63 -4.55,8.13 -5.80,7.62 -6.52,6.72 -7.25,5.82 -7.22,5.76 -7.18,5.69 -7.52,5.37 -7.86,5.05 -8.11,4.66 -8.36,4.26 -8.51,3.82 -8.66,3.38 -8.70,2.91 -8.74,2.45 -8.66,1.99 -8.59,1.53 -8.41,1.10 -8.23,0.67 -7.95,0.29 -7.67,-0.07 -7.31,-0.37 -6.95,-0.67 -6.53,-0.87 -6.10,-1.07 -5.65,-1.16 -5.19,-1.26 -4.72,-1.24 -4.26,-1.22 -3.81,-1.09 -3.36,-0.97 -2.96,-0.73 -2.55,-0.50 -4.87,2.60 -7.20,5.72 -7.53,5.39 -7.87,5.07 -8.12,4.68 -8.37,4.28 -8.52,3.84 -8.67,3.40 -8.71,2.93 -8.75,2.47 -8.68,2.01 -8.60,1.55 -8.42,1.12 -8.24,0.69 -7.96,0.31 -7.68,-0.05 -7.32,-0.35 -6.96,-0.64 -6.54,-0.84 -6.12,-1.04 -5.66,-1.14 -5.21,-1.23 -4.74,-1.22 -4.27,-1.20 -3.82,-1.07 -3.38,-0.94 -2.97,-0.71 -2.57,-0.48 -1.21,-0.43 0.14,-0.39 1.78,0.02 3.43,0.43 4.74,0.91 6.05,1.38 7.46,2.10 8.88,2.81 9.67,3.57 10.47,4.34 11.19,5.40 11.91,6.46 12.86,7.16 13.80,7.87 14.75,8.37 15.70,8.87 15.85,11.84 16.00,14.82 14.64,15.02 13.27,15.22 11.71,14.49 10.14,13.77 9.12,12.88 8.09,12.00 6.69,11.14 5.29,10.28 3.07,7.63 0.86,4.98 0.63,4.62 0.40,4.25 0.29,3.83 0.19,3.41 0.23,2.98 0.26,2.55 0.44,2.16 0.61,1.76 0.90,1.44 1.19,1.12 1.57,0.91 1.94,0.70 2.37,0.62 2.79,0.54 3.22,0.60 3.65,0.66 4.03,0.85 4.42,1.05 4.72,1.35 5.03,1.66 5.22,2.05 5.41,2.43 5.46,2.86 5.52,3.29 5.44,3.71 5.35,4.14 5.14,4.51 4.92,4.89 4.60,5.17 4.28,5.46 3.88,5.63 3.48,5.80 3.05,5.83 2.62,5.87 2.20,5.76 1.79,5.65 1.42,5.42 1.06,5.19 0.79,4.85 0.52,4.51 0.38,4.10 0.23,3.70 0.22,3.27 0.21,2.83 0.34,2.42 0.47,2.01 0.72,1.66 0.97,1.31 1.32,1.06 1.68,0.81 2.09,0.69 2.50,0.56 2.93,0.57 3.37,0.59 3.77,0.74 4.18,0.89 4.51,1.16 4.85,1.43 4.85,1.43 4.85,1.43 6.50,3.13 8.14,4.82 10.15,5.62 12.15,6.42 13.11,7.66 14.07,8.90 12.74,9.07 11.41,9.24 11.80,12.22 12.20,15.21 11.03,14.59 9.85,13.97 8.94,13.40 8.02,12.84 7.16,12.12 6.30,11.41 5.58,10.21 4.86,9.00 3.72,8.51 2.57,8.01 1.52,7.70 0.48,7.40 -1.02,7.15 -2.53,6.90 -3.82,6.70 -5.11,6.50 -6.15,6.11 -7.20,5.72 -7.53,5.39 -7.87,5.07 -8.12,4.68 -8.37,4.28 -8.52,3.84 -8.67,3.40 -8.71,2.94 -8.75,2.47 -8.68,2.01 -8.60,1.55 -8.42,1.12 -8.24,0.69 -7.96,0.32 -7.68,-0.05 -7.32,-0.35 -6.96,-0.64 -6.54,-0.84 -6.12,-1.04 -5.66,-1.14 -5.21,-1.23 -4.74,-1.22 -4.27,-1.20 -3.82,-1.07 -3.38,-0.94 -2.97,-0.71 -2.57,-0.48 -4.87,2.60 -7.18,5.69 -7.52,5.37 -7.86,5.05 -8.11,4.66 -8.36,4.26 -8.51,3.82 -8.66,3.38 -8.70,2.91 -8.74,2.45 -8.66,1.99 -8.59,1.53 -8.41,1.10 -8.23,0.67 -7.95,0.29 -7.67,-0.07 -7.31,-0.37 -6.95,-0.66 -6.53,-0.87 -6.11,-1.07 -5.65,-1.16 -5.19,-1.26 -4.73,-1.24 -4.26,-1.22 -3.81,-1.09 -3.36,-0.97 -2.96,-0.73 -2.55,-0.50 -2.21,0.27 -1.87,1.06 -0.78,1.26 0.30,1.47 1.34,1.88 2.39,2.28 3.41,2.73 4.43,3.18 5.70,3.92 6.98,4.66 8.04,5.32 9.09,5.98 10.40,6.61 11.70,7.25 12.78,7.35 13.86,7.46 12.73,8.91 11.60,10.37 12.15,11.41 12.70,12.45 11.47,11.69 10.25,10.93 8.92,10.65 7.60,10.37 6.61,9.65 5.63,8.92 5.24,7.09 4.84,5.26 5.18,4.00 5.52,2.73 5.99,1.25 6.46,-0.23 6.81,-1.59 7.17,-2.96 7.35,-4.27 7.52,-5.58 7.61,-6.70 7.70,-7.82 7.75,-9.14 7.81,-10.47 7.94,-12.16 8.07,-13.84 8.33,-14.88 8.59,-15.92 9.66,-17.07 10.74,-18.22 11.78,-18.66 12.82,-19.11 14.28,-19.41 15.73,-19.70 17.74,-19.35 19.75,-19.00 20.89,-18.17 22.04,-17.34 23.01,-15.81 23.99,-14.27 24.33,-12.85 24.68,-11.44 25.27,-10.19 25.86,-8.94 27.33,-8.13 28.80,-7.32 30.16,-6.69 31.51,-6.06 32.47,-5.51 33.42,-4.95 34.62,-4.13 35.82,-3.32 36.66,-2.38 37.51,-1.44 37.89,-0.25 38.27,0.93 37.46,2.83 36.66,4.72 35.65,5.60 34.64,6.47 33.69,7.05 32.73,7.63 31.67,8.36 30.60,9.09 29.52,9.92 28.43,10.74 27.32,11.79 26.21,12.83 25.36,13.72 24.52,14.61 23.58,15.48 22.64,16.36 21.93,17.24 21.22,18.11 19.98,19.19 18.74,20.27 17.57,20.35 16.41,20.43 15.11,19.85 13.82,19.27 13.33,17.38 12.84,15.50 13.01,14.30 13.17,13.11 13.58,14.62 13.98,16.13 13.45,14.82 12.92,13.51 13.04,12.28 13.16,11.05 13.64,12.03 14.13,13.02 13.39,12.13 12.66,11.24 12.41,10.13 12.16,9.02 12.47,7.90 12.79,6.77 13.39,5.66 14.00,4.55 14.27,3.26 14.55,1.98 14.63,0.89 14.71,-0.18 14.92,-1.32 15.13,-2.47 14.89,-3.72 14.65,-4.98 14.51,-6.14 14.37,-7.31 14.18,-8.54 13.99,-9.77 13.78,-11.13 13.56,-12.48 13.65,-14.06 13.75,-15.64 13.91,-16.89 14.07,-18.14 14.22,-18.56 14.37,-18.98 14.62,-19.35 14.87,-19.72 15.20,-20.03 15.54,-20.33 15.93,-20.54 16.32,-20.76 16.76,-20.87 17.19,-20.98 17.64,-20.99 18.09,-21.00 18.53,-20.89 18.96,-20.79 19.36,-20.59 19.76,-20.39 20.10,-20.10 20.44,-19.80 20.70,-19.44 20.96,-19.07 21.13,-18.65 21.29,-18.24 21.35,-17.79 21.41,-17.35 21.37,-16.90 21.32,-16.46 21.05,-15.38 20.78,-14.29 20.81,-13.09 20.84,-11.89 21.08,-10.61 21.33,-9.33 21.15,-8.15 20.97,-6.98 20.34,-6.02 19.71,-5.07 19.45,-3.85 19.20,-2.63 18.71,-1.66 18.22,-0.68 16.97,0.61 15.72,1.91 14.76,2.58 13.81,3.24 11.57,4.21 9.32,5.19 7.36,5.73 5.40,6.28 4.39,6.68 3.37,7.09 2.13,7.50 0.89,7.92 1.78,6.41 2.67,4.91 2.49,3.61 2.31,2.32 3.72,2.87 5.14,3.42 6.95,3.82 8.76,4.23 10.25,4.31 11.73,4.40 13.01,4.20 14.29,4.01 15.40,3.62 16.52,3.22 18.28,2.64 20.04,2.06 21.24,1.49 22.43,0.92 23.57,0.21 24.72,-0.49 26.03,-1.46 27.34,-2.42 27.35,-1.12 27.37,0.17 26.41,-0.33 25.46,-0.84 24.41,-1.22 23.36,-1.61 21.94,-2.43 20.52,-3.25 19.63,-4.12 18.75,-5.00 17.82,-5.74 16.88,-6.48 16.13,-7.42 15.37,-8.35 15.11,-9.47 14.85,-10.58 16.27,-10.20 17.69,-9.82 16.78,-9.13 15.86,-8.44 14.46,-7.69 13.06,-6.94 12.03,-6.51 11.01,-6.07 9.49,-5.19 7.98,-4.31 7.08,-3.34 6.17,-2.37 5.34,-1.42 4.50,-0.48 3.53,0.42 2.56,1.33 2.13,1.65 1.69,1.97 1.43,2.14 1.17,2.32 0.87,2.42 0.58,2.53 0.26,2.56 -0.04,2.60 -0.35,2.55 -0.66,2.51 -0.95,2.39 -1.24,2.28 -1.50,2.10 -1.75,1.91 -1.96,1.68 -2.16,1.44 -2.30,1.16 -2.44,0.88 -2.51,0.57 -2.58,0.27 -2.58,-0.04 -2.57,-0.35 -2.49,-0.65 -2.41,-0.96 -2.26,-1.23 -2.11,-1.51 -1.90,-1.74 -1.69,-1.97 -1.69,-1.97 L -1.69,-1.97 Z"></path></g><g mask="url(#mask-uBC3HMTaUbHkTPufKFFLS)" stroke-linecap="round"><g transform="translate(1372.7470138782528 1001.4438364260882) rotate(270 73.8712172815845 -0.8935719003162603)"><path d="M0 0 C24.62 -0.3, 123.12 -1.49, 147.74 -1.79 M0 0 C24.62 -0.3, 123.12 -1.49, 147.74 -1.79" stroke="#000000" stroke-width="2" fill="none"></path></g></g><mask id="mask-uBC3HMTaUbHkTPufKFFLS"><rect x="0" y="0" fill="#fff" width="1620.4894484414217" height="1103.2309802267207"></rect><rect x="1411.6182311598373" y="991.050264525772" fill="#000" width="70" height="19" opacity="1"></rect></mask><g transform="translate(1411.6182311598373 991.050264525772) rotate(0 35.00000000000006 9.499999999999886)"><text x="35" y="0" font-family="Helvetica, Segoe UI Emoji" font-size="16px" fill="#000000" text-anchor="middle" style="white-space: pre;" direction="ltr" dominant-baseline="text-before-edge">Maintains</text></g><g stroke-linecap="round" transform="translate(1434.957937789532 906.1130870810525) rotate(270 10.12147441379841 9.630510555835713)"><path d="M11 0 C14.37 3.65, 17.75 7.3, 20.24 10 M11 0 C13.2 2.38, 15.39 4.75, 20.24 10 M20.24 10 C17.2 13.05, 14.15 16.11, 11 19.26 M20.24 10 C17.02 13.23, 13.79 16.47, 11 19.26 M11 19.26 C7.02 15.91, 3.05 12.57, 0 10 M11 19.26 C8.68 17.3, 6.35 15.35, 0 10 M0 10 C3.1 7.18, 6.2 4.37, 11 0 M0 10 C2.7 7.54, 5.41 5.08, 11 0" stroke="#000000" stroke-width="2" fill="none"></path></g><g transform="translate(1439.1162922702933 915.6751256588634) rotate(270 6.038164938032764 -0.13113964300271164)" stroke="none"><path fill="#000000" d="M -1.76,-1.69 Q -1.76,-1.69 -1.47,-2.06 -1.18,-2.43 -0.38,-3.52 0.41,-4.62 1.25,-5.30 2.09,-5.98 3.13,-6.62 4.18,-7.25 6.26,-7.55 8.34,-7.85 9.20,-6.94 10.06,-6.02 11.01,-5.55 11.96,-5.07 12.94,-4.54 13.92,-4.01 14.85,-2.94 15.78,-1.87 15.60,-0.19 15.42,1.47 14.58,2.41 13.74,3.35 12.76,4.08 11.78,4.80 10.47,5.38 9.16,5.95 8.08,6.33 7.00,6.71 5.88,6.87 4.76,7.03 3.38,6.88 2.01,6.73 0.87,6.37 -0.26,6.00 -1.23,5.52 -2.20,5.03 -2.72,3.37 -3.24,1.72 -2.91,0.60 -2.59,-0.50 -1.43,-1.22 -0.28,-1.93 1.07,-2.42 2.42,-2.92 2.99,-3.89 3.56,-4.87 3.48,-6.29 3.41,-7.72 3.40,-7.79 3.39,-7.85 3.55,-8.29 3.71,-8.73 3.96,-9.11 4.22,-9.50 4.57,-9.81 4.91,-10.13 5.32,-10.35 5.73,-10.57 6.18,-10.69 6.63,-10.80 7.09,-10.81 7.56,-10.82 8.01,-10.71 8.46,-10.61 8.88,-10.40 9.29,-10.19 9.64,-9.88 9.99,-9.58 10.26,-9.20 10.53,-8.82 10.70,-8.39 10.87,-7.96 10.94,-7.50 11.00,-7.04 10.95,-6.58 10.90,-6.11 11.02,-4.86 11.14,-3.61 11.30,-2.47 11.46,-1.32 11.37,-0.25 11.28,0.81 11.11,2.00 10.95,3.19 10.49,4.18 10.04,5.16 9.97,3.72 9.89,2.28 10.33,3.29 10.77,4.29 10.58,5.46 10.38,6.62 10.28,5.07 10.17,3.51 10.41,5.04 10.65,6.57 10.19,5.47 9.74,4.36 8.48,3.80 7.22,3.24 5.89,3.42 4.55,3.61 5.28,2.83 6.00,2.04 6.77,1.30 7.53,0.55 8.57,-0.22 9.61,-1.01 10.12,0.72 10.62,2.46 9.54,1.90 8.47,1.33 7.25,0.40 6.03,-0.52 5.55,-1.56 5.06,-2.60 6.17,-2.75 7.27,-2.89 7.95,-4.01 8.64,-5.13 8.56,-3.99 8.48,-2.85 8.37,-1.76 8.25,-0.67 8.00,0.39 7.75,1.46 7.41,2.57 7.07,3.67 6.80,2.06 6.53,0.44 5.70,-0.23 4.88,-0.91 6.00,-0.43 7.13,0.05 8.23,0.76 9.34,1.48 9.71,2.49 10.09,3.50 9.87,4.75 9.66,6.00 8.21,7.18 6.76,8.36 5.37,8.36 3.98,8.36 2.66,7.86 1.34,7.36 0.34,6.73 -0.65,6.10 -2.22,5.54 -3.78,4.99 -4.52,4.11 -5.26,3.23 -4.79,3.72 -4.33,4.21 -4.67,3.88 -5.02,3.55 -5.27,3.15 -5.53,2.75 -5.68,2.30 -5.84,1.85 -5.88,1.37 -5.92,0.90 -5.84,0.43 -5.77,-0.03 -5.58,-0.47 -5.39,-0.91 -5.11,-1.30 -4.82,-1.68 -4.46,-1.98 -4.09,-2.28 -3.66,-2.49 -3.23,-2.69 -2.76,-2.79 -2.29,-2.89 -1.82,-2.87 -1.34,-2.85 -0.88,-2.72 -0.42,-2.59 -0.01,-2.35 0.39,-2.12 -1.97,1.05 -4.33,4.22 -4.68,3.89 -5.02,3.56 -5.28,3.16 -5.54,2.76 -5.69,2.31 -5.84,1.86 -5.88,1.38 -5.92,0.91 -5.85,0.44 -5.77,-0.03 -5.59,-0.46 -5.40,-0.90 -5.12,-1.29 -4.83,-1.67 -4.46,-1.97 -4.09,-2.27 -3.66,-2.48 -3.23,-2.68 -2.77,-2.78 -2.30,-2.88 -1.82,-2.86 -1.35,-2.84 -0.89,-2.71 -0.43,-2.58 -0.02,-2.34 0.39,-2.11 1.58,-2.01 2.78,-1.91 3.85,-1.40 4.91,-0.90 5.68,-0.08 6.45,0.73 7.19,4.25 7.93,7.76 6.51,7.96 5.10,8.16 3.67,7.63 2.24,7.11 0.28,5.46 -1.67,3.81 -2.00,3.29 -2.33,2.77 -2.47,2.18 -2.62,1.58 -2.57,0.97 -2.51,0.36 -2.27,-0.19 -2.02,-0.75 -1.61,-1.21 -1.20,-1.66 -0.67,-1.96 -0.13,-2.26 0.46,-2.37 1.06,-2.48 1.67,-2.40 2.28,-2.31 2.82,-2.04 3.37,-1.76 3.80,-1.33 4.23,-0.89 4.50,-0.34 4.77,0.20 4.85,0.80 4.93,1.41 4.82,2.01 4.70,2.61 4.39,3.15 4.09,3.68 3.63,4.09 3.17,4.49 2.61,4.73 2.05,4.97 1.44,5.02 0.82,5.07 0.23,4.92 -0.35,4.76 -0.87,4.43 -1.38,4.10 -1.76,3.62 -2.15,3.14 -2.36,2.57 -2.56,1.99 -2.58,1.38 -2.59,0.76 -2.41,0.18 -2.23,-0.40 -1.87,-0.89 -1.51,-1.39 -1.01,-1.74 -0.51,-2.10 0.07,-2.28 0.65,-2.45 1.27,-2.43 1.88,-2.41 2.45,-2.20 3.03,-1.99 3.50,-1.60 3.98,-1.21 3.98,-1.21 3.98,-1.21 5.18,-0.32 6.38,0.56 7.33,1.30 8.29,2.05 7.11,1.81 5.93,1.58 4.54,1.77 3.14,1.95 3.57,5.08 3.99,8.21 2.93,7.70 1.87,7.19 0.92,6.31 -0.03,5.43 -1.17,5.23 -2.31,5.02 -3.32,4.62 -4.33,4.22 -4.68,3.89 -5.02,3.56 -5.28,3.16 -5.54,2.76 -5.69,2.31 -5.84,1.86 -5.88,1.38 -5.92,0.91 -5.85,0.44 -5.77,-0.03 -5.59,-0.46 -5.40,-0.90 -5.12,-1.29 -4.83,-1.67 -4.46,-1.97 -4.09,-2.27 -3.66,-2.48 -3.23,-2.68 -2.77,-2.78 -2.30,-2.88 -1.82,-2.86 -1.35,-2.84 -0.89,-2.71 -0.43,-2.58 -0.02,-2.34 0.39,-2.11 -1.97,1.05 -4.33,4.21 -4.67,3.88 -5.02,3.56 -5.27,3.15 -5.53,2.75 -5.68,2.30 -5.84,1.85 -5.88,1.37 -5.92,0.90 -5.84,0.43 -5.77,-0.03 -5.58,-0.47 -5.40,-0.91 -5.11,-1.29 -4.82,-1.68 -4.46,-1.98 -4.09,-2.28 -3.66,-2.49 -3.23,-2.69 -2.76,-2.79 -2.29,-2.89 -1.82,-2.87 -1.34,-2.85 -0.88,-2.72 -0.42,-2.59 -0.01,-2.35 0.39,-2.12 1.15,-1.19 1.91,-0.27 1.05,-1.04 0.20,-1.81 1.37,-1.30 2.53,-0.80 3.81,-0.06 5.09,0.67 3.96,1.42 2.82,2.18 2.59,3.46 2.35,4.74 3.39,6.03 4.43,7.33 3.35,6.89 2.26,6.46 1.32,5.73 0.37,5.01 -0.03,3.40 -0.43,1.80 -0.09,0.55 0.24,-0.69 0.46,-1.99 0.68,-3.29 0.76,-4.54 0.84,-5.79 1.33,-6.97 1.82,-8.15 3.16,-9.11 4.51,-10.06 6.10,-10.20 7.70,-10.34 8.72,-9.89 9.73,-9.44 10.64,-8.52 11.55,-7.61 12.17,-6.39 12.79,-5.17 13.85,-4.58 14.91,-3.99 16.03,-2.95 17.15,-1.92 17.45,-0.82 17.75,0.26 17.53,1.41 17.30,2.55 16.50,3.45 15.69,4.35 14.74,4.99 13.79,5.62 12.97,6.30 12.16,6.99 11.31,7.86 10.47,8.73 9.54,9.52 8.61,10.31 7.49,10.36 6.37,10.41 5.08,9.83 3.79,9.26 3.36,8.21 2.93,7.16 2.97,5.95 3.02,4.74 3.18,6.06 3.35,7.38 3.10,6.14 2.84,4.90 3.42,3.75 3.99,2.60 3.51,3.88 3.03,5.15 3.84,6.27 4.65,7.40 3.84,6.46 3.03,5.52 2.80,4.47 2.57,3.42 3.04,2.10 3.51,0.79 3.56,-0.28 3.61,-1.37 3.47,-2.42 3.34,-3.48 3.22,-4.57 3.11,-5.66 3.25,-6.76 3.39,-7.85 3.55,-8.29 3.71,-8.73 3.96,-9.11 4.22,-9.50 4.57,-9.81 4.91,-10.13 5.32,-10.35 5.73,-10.57 6.18,-10.69 6.63,-10.80 7.09,-10.81 7.55,-10.82 8.01,-10.71 8.46,-10.61 8.87,-10.40 9.29,-10.19 9.64,-9.88 9.99,-9.58 10.26,-9.20 10.53,-8.82 10.70,-8.39 10.87,-7.96 10.94,-7.50 11.00,-7.04 10.95,-6.58 10.90,-6.11 10.74,-5.94 10.59,-5.76 10.78,-4.67 10.98,-3.58 10.60,-2.51 10.23,-1.44 9.77,-0.14 9.31,1.15 8.53,1.94 7.76,2.74 6.53,3.42 5.29,4.09 4.00,4.46 2.70,4.82 1.69,5.17 0.69,5.52 1.57,4.88 2.46,4.23 2.75,3.16 3.05,2.10 2.64,0.52 2.23,-1.05 3.48,-0.71 4.72,-0.38 5.78,-0.73 6.83,-1.08 7.95,-1.25 9.07,-1.42 9.58,0.12 10.10,1.68 9.05,1.25 8.01,0.82 7.12,0.08 6.24,-0.66 5.67,-1.78 5.10,-2.91 6.60,-2.71 8.09,-2.51 7.17,-1.95 6.25,-1.38 5.21,-0.95 4.17,-0.51 3.32,0.28 2.47,1.09 2.11,1.39 1.76,1.69 1.53,1.88 1.30,2.07 1.03,2.19 0.77,2.32 0.48,2.38 0.19,2.44 -0.10,2.42 -0.39,2.41 -0.68,2.33 -0.96,2.25 -1.21,2.10 -1.47,1.95 -1.68,1.74 -1.90,1.54 -2.05,1.29 -2.21,1.04 -2.30,0.76 -2.40,0.48 -2.42,0.19 -2.44,-0.10 -2.39,-0.39 -2.35,-0.68 -2.23,-0.95 -2.11,-1.22 -1.94,-1.46 -1.76,-1.70 -1.76,-1.69 L -1.76,-1.69 Z"></path></g><g transform="translate(1450.0762458642648 1052.4660040729002) rotate(0 15 9.5)"><text x="0" y="0" font-family="Helvetica, Segoe UI Emoji" font-size="16px" fill="#000000" text-anchor="start" style="white-space: pre;" direction="ltr" dominant-baseline="text-before-edge">1...*</text></g><g transform="translate(952.8366111027461 1079.0653028201632) rotate(0 5.5 9.5)"><text x="0" y="0" font-family="Helvetica, Segoe UI Emoji" font-size="16px" fill="#000000" text-anchor="start" style="white-space: pre;" direction="ltr" dominant-baseline="text-before-edge">1</text></g><g transform="translate(779.2667674649199 1050.56234571649) rotate(0 5.5 9.5)"><text x="0" y="0" font-family="Helvetica, Segoe UI Emoji" font-size="16px" fill="#000000" text-anchor="start" style="white-space: pre;" direction="ltr" dominant-baseline="text-before-edge">1</text></g><g transform="translate(955.0078984768413 575.152182950883) rotate(14.999999999999982 15 9.5)"><text x="0" y="0" font-family="Helvetica, Segoe UI Emoji" font-size="16px" fill="#000000" text-anchor="start" style="white-space: pre;" direction="ltr" dominant-baseline="text-before-edge">*...1</text></g><g stroke-linecap="round" transform="translate(10 10.000000000000057) rotate(0 856.3190732684665 856.3190732684665)"><path d="M32 0 M32 0 C550.51 0, 1069.02 0, 1680.64 0 M32 0 C613.88 0, 1195.76 0, 1680.64 0 M1680.64 0 C1701.97 0, 1712.64 10.67, 1712.64 32 M1680.64 0 C1701.97 0, 1712.64 10.67, 1712.64 32 M1712.64 32 C1712.64 543.46, 1712.64 1054.92, 1712.64 1680.64 M1712.64 32 C1712.64 661.27, 1712.64 1290.54, 1712.64 1680.64 M1712.64 1680.64 C1712.64 1701.97, 1701.97 1712.64, 1680.64 1712.64 M1712.64 1680.64 C1712.64 1701.97, 1701.97 1712.64, 1680.64 1712.64 M1680.64 1712.64 C1335.45 1712.64, 990.27 1712.64, 32 1712.64 M1680.64 1712.64 C1305.07 1712.64, 929.5 1712.64, 32 1712.64 M32 1712.64 C10.67 1712.64, 0 1701.97, 0 1680.64 M32 1712.64 C10.67 1712.64, 0 1701.97, 0 1680.64 M0 1680.64 C0 1118.85, 0 557.07, 0 32 M0 1680.64 C0 1275.2, 0 869.77, 0 32 M0 32 C0 10.67, 10.67 0, 32 0 M0 32 C0 10.67, 10.67 0, 32 0" stroke="#000000" stroke-width="1" fill="none"></path></g><g transform="translate(423.52884108286787 266.74021832345363) rotate(0 5.5 9.5)"><text x="0" y="0" font-family="Helvetica, Segoe UI Emoji" font-size="16px" fill="#000000" text-anchor="start" style="white-space: pre;" direction="ltr" dominant-baseline="text-before-edge">1</text></g><g transform="translate(423.12694049325455 329.3768547846478) rotate(0 5.5 9.5)"><text x="0" y="0" font-family="Helvetica, Segoe UI Emoji" font-size="16px" fill="#000000" text-anchor="start" style="white-space: pre;" direction="ltr" dominant-baseline="text-before-edge">1</text></g><g transform="translate(800.4858890022394 973.936747414722) rotate(0 19 9.5)"><text x="0" y="0" font-family="Helvetica, Segoe UI Emoji" font-size="16px" fill="#000000" text-anchor="start" style="white-space: pre;" direction="ltr" dominant-baseline="text-before-edge">Uses</text></g><g mask="url(#mask-EbbBopHzyCBCM4m643dOr)" stroke-linecap="round"><g transform="translate(948.8314004341087 1100.601411106611) rotate(0 186.23602431275322 0)"><path d="M0 0 C62.08 0, 310.39 0, 372.47 0 M0 0 C62.08 0, 310.39 0, 372.47 0" stroke="#000000" stroke-width="4" fill="none"></path></g><g transform="translate(948.8314004341087 1100.601411106611) rotate(0 186.23602431275322 0)"><path d="M344.28 10.26 C350.26 8.08, 356.24 5.91, 372.47 0 M344.28 10.26 C354.63 6.49, 364.98 2.73, 372.47 0" stroke="#000000" stroke-width="4" fill="none"></path></g><g transform="translate(948.8314004341087 1100.601411106611) rotate(0 186.23602431275322 0)"><path d="M344.28 -10.26 C350.26 -8.08, 356.24 -5.91, 372.47 0 M344.28 -10.26 C354.63 -6.49, 364.98 -2.73, 372.47 0" stroke="#000000" stroke-width="4" fill="none"></path></g></g><mask id="mask-EbbBopHzyCBCM4m643dOr"><rect x="0" y="0" fill="#fff" width="1421.303449059615" height="1200.601411106611"></rect><rect x="1116.067424746862" y="1091.101411106611" fill="#000" width="38" height="19" opacity="1"></rect></mask><g transform="translate(1116.067424746862 1091.101411106611) rotate(0 19 9.5)"><text x="19" y="0" font-family="Helvetica, Segoe UI Emoji" font-size="16px" fill="#000000" text-anchor="middle" style="white-space: pre;" direction="ltr" dominant-baseline="text-before-edge">Uses</text></g><g mask="url(#mask-DsPZG2nFXu9vUJ0UwAquj)" stroke-linecap="round"><g transform="translate(890.2584253174325 447.2191748420187) rotate(40.15533988600728 252.71781193375432 7.8359074803697695)"><path d="M0 0 C84.24 2.61, 421.2 13.06, 505.44 15.67 M0 0 C84.24 2.61, 421.2 13.06, 505.44 15.67" stroke="#000000" stroke-width="2" fill="none"></path></g></g><mask id="mask-DsPZG2nFXu9vUJ0UwAquj"><rect x="0" y="0" fill="#fff" width="1495.6940491849412" height="562.8909898027582"></rect><rect x="1114.9762372511868" y="441.55508232238844" fill="#000" width="56" height="27" opacity="1"></rect></mask><g transform="translate(1114.9762372511868 441.55508232238844) rotate(24.689075545996737 28 13.5)"><text x="28" y="0" font-family="Helvetica, Segoe UI Emoji" font-size="23.571134038891753px" fill="#000000" text-anchor="middle" style="white-space: pre;" direction="ltr" dominant-baseline="text-before-edge">Uses</text></g><g stroke-linecap="round" transform="translate(1324.1827286304415 613.4140830572019) rotate(40.15533988600728 36.912701930537025 35.1221720327452)"><path d="M37 0 C51.7 14.37, 66.39 28.73, 73.83 36 M37 0 C45.61 8.42, 54.23 16.84, 73.83 36 M73.83 36 C63.71 45.4, 53.6 54.81, 37 70.24 M73.83 36 C64.49 44.68, 55.15 53.37, 37 70.24 M37 70.24 C26.08 60.14, 15.17 50.04, 0 36 M37 70.24 C29 62.84, 20.99 55.43, 0 36 M0 36 C9.96 26.31, 19.92 16.61, 37 0 M0 36 C10.83 25.47, 21.65 14.93, 37 0" stroke="#000000" stroke-width="2" fill="none"></path></g><g transform="translate(1339.4543331574682 649.6931408428927) rotate(40.15533988600728 22.02099945647933 -0.4782621933853761)" stroke="none"><path fill="#000000" d="M -3.35,-3.87 Q -3.35,-3.87 -2.75,-4.49 -2.15,-5.11 -0.44,-7.57 1.27,-10.03 2.78,-11.94 4.28,-13.85 6.04,-15.49 7.79,-17.13 9.80,-18.32 11.81,-19.52 13.97,-20.67 16.13,-21.83 17.92,-23.35 19.71,-24.86 23.87,-24.94 28.04,-25.01 30.10,-22.72 32.16,-20.44 34.03,-18.79 35.90,-17.15 37.60,-15.70 39.31,-14.26 41.80,-13.47 44.29,-12.69 46.28,-11.46 48.27,-10.22 50.43,-7.63 52.60,-5.04 52.83,-2.85 53.05,-0.66 51.92,1.52 50.78,3.70 49.31,5.24 47.83,6.79 45.19,8.94 42.54,11.10 40.41,12.31 38.27,13.53 36.23,14.43 34.19,15.33 31.99,15.93 29.78,16.54 27.28,17.47 24.78,18.40 22.35,18.97 19.92,19.55 17.17,19.49 14.43,19.44 11.48,18.95 8.52,18.47 6.21,17.70 3.90,16.93 1.11,15.80 -1.67,14.66 -4.08,10.63 -6.48,6.59 -5.83,4.38 -5.18,2.16 -3.47,0.88 -1.76,-0.39 0.54,-1.31 2.85,-2.22 5.18,-2.96 7.52,-3.70 10.15,-4.42 12.77,-5.13 14.88,-6.53 16.98,-7.93 17.35,-10.28 17.72,-12.64 17.71,-14.88 17.69,-17.12 17.69,-19.51 17.70,-21.89 18.15,-24.26 18.60,-26.63 18.64,-26.91 18.68,-27.19 18.99,-28.05 19.30,-28.91 19.81,-29.67 20.32,-30.43 21.00,-31.05 21.67,-31.66 22.48,-32.10 23.28,-32.54 24.16,-32.77 25.05,-33.00 25.96,-33.01 26.88,-33.02 27.77,-32.82 28.66,-32.61 29.47,-32.20 30.29,-31.78 30.98,-31.19 31.67,-30.59 32.20,-29.85 32.73,-29.10 33.07,-28.25 33.41,-27.40 33.53,-26.49 33.65,-25.59 33.55,-24.68 33.46,-23.77 33.24,-21.55 33.02,-19.32 33.36,-17.02 33.69,-14.71 34.08,-12.60 34.47,-10.48 34.87,-7.85 35.27,-5.22 35.16,-2.97 35.04,-0.72 34.90,1.46 34.75,3.66 34.47,5.93 34.20,8.19 32.93,11.08 31.67,13.96 30.10,11.12 28.54,8.28 30.53,11.04 32.53,13.80 32.54,16.51 32.56,19.22 31.34,21.93 30.12,24.64 31.22,22.56 32.32,20.48 31.88,18.25 31.44,16.02 31.97,19.24 32.51,22.45 29.08,20.12 25.64,17.78 23.13,18.06 20.63,18.34 22.80,15.95 24.98,13.55 27.18,11.45 29.38,9.35 31.41,7.52 33.44,5.69 35.38,4.24 37.31,2.78 39.35,1.39 41.38,-0.00 43.20,-1.41 45.01,-2.82 44.37,-0.42 43.73,1.97 40.21,1.12 36.68,0.27 34.14,-1.21 31.60,-2.70 29.43,-4.44 27.26,-6.18 26.35,-8.18 25.44,-10.18 24.79,-12.26 24.13,-14.34 23.43,-16.45 22.72,-18.56 23.59,-16.47 24.45,-14.39 24.27,-11.72 24.08,-9.06 23.79,-6.30 23.49,-3.54 22.87,-0.88 22.25,1.77 21.68,3.92 21.11,6.07 20.38,8.44 19.65,10.81 19.11,8.16 18.58,5.51 16.54,4.07 14.51,2.64 17.24,3.37 19.97,4.11 22.35,5.36 24.72,6.62 26.70,7.91 28.68,9.20 29.45,11.34 30.21,13.49 29.72,16.31 29.23,19.12 26.24,21.57 23.26,24.02 20.66,24.15 18.07,24.28 15.61,23.84 13.16,23.40 10.87,22.38 8.59,21.36 6.22,20.21 3.85,19.06 2.25,17.54 0.66,16.02 2.77,17.38 4.89,18.74 2.77,17.74 0.65,16.73 -1.34,15.84 -3.34,14.95 -6.58,13.93 -9.82,12.91 -11.18,11.25 -12.54,9.58 -12.19,9.83 -11.85,10.08 -12.53,9.43 -13.21,8.78 -13.72,7.99 -14.22,7.19 -14.52,6.30 -14.82,5.41 -14.90,4.47 -14.98,3.53 -14.83,2.60 -14.69,1.67 -14.32,0.80 -13.95,-0.06 -13.39,-0.81 -12.83,-1.57 -12.10,-2.16 -11.37,-2.76 -10.52,-3.17 -9.67,-3.58 -8.75,-3.77 -7.83,-3.96 -6.89,-3.92 -5.94,-3.89 -5.04,-3.63 -4.13,-3.37 -3.32,-2.90 -2.50,-2.43 -7.18,3.84 -11.87,10.11 -12.55,9.46 -13.23,8.81 -13.74,8.02 -14.24,7.22 -14.54,6.33 -14.85,5.44 -14.92,4.50 -15.00,3.56 -14.85,2.63 -14.71,1.70 -14.34,0.83 -13.97,-0.02 -13.41,-0.78 -12.85,-1.53 -12.12,-2.13 -11.39,-2.73 -10.54,-3.13 -9.69,-3.54 -8.77,-3.73 -7.85,-3.92 -6.91,-3.89 -5.97,-3.85 -5.06,-3.59 -4.15,-3.34 -3.34,-2.87 -2.52,-2.40 0.39,-2.24 3.31,-2.08 5.66,-1.36 8.00,-0.64 10.26,0.32 12.52,1.29 14.35,2.54 16.18,3.80 17.37,5.64 18.57,7.49 20.30,8.88 22.04,10.28 23.46,16.84 24.88,23.41 22.10,23.81 19.32,24.21 16.31,22.94 13.30,21.66 9.97,19.51 6.64,17.36 3.15,13.06 -0.33,8.77 -0.86,7.94 -1.39,7.11 -1.62,6.15 -1.86,5.19 -1.77,4.21 -1.69,3.23 -1.29,2.33 -0.90,1.43 -0.24,0.70 0.41,-0.02 1.27,-0.51 2.13,-0.99 3.10,-1.17 4.06,-1.35 5.04,-1.21 6.02,-1.07 6.90,-0.63 7.78,-0.19 8.47,0.50 9.16,1.20 9.60,2.08 10.03,2.97 10.16,3.94 10.29,4.92 10.10,5.88 9.91,6.85 9.42,7.71 8.93,8.56 8.19,9.21 7.46,9.87 6.55,10.25 5.65,10.64 4.66,10.71 3.68,10.79 2.73,10.55 1.77,10.31 0.95,9.77 0.12,9.24 -0.48,8.47 -1.10,7.70 -1.43,6.77 -1.77,5.85 -1.79,4.86 -1.81,3.88 -1.52,2.94 -1.23,2.00 -0.65,1.20 -0.07,0.40 0.72,-0.16 1.52,-0.73 2.47,-1.01 3.41,-1.30 4.39,-1.27 5.38,-1.24 6.30,-0.89 7.22,-0.55 7.99,0.06 8.75,0.68 8.75,0.68 8.75,0.68 10.95,2.79 13.15,4.90 17.05,8.11 20.95,11.33 18.23,11.68 15.51,12.04 15.00,17.59 14.48,23.14 12.54,21.92 10.60,20.70 8.65,18.91 6.69,17.12 4.89,15.50 3.08,13.87 0.47,13.23 -2.12,12.60 -5.00,12.13 -7.88,11.66 -9.87,10.89 -11.87,10.11 -12.55,9.46 -13.23,8.81 -13.74,8.02 -14.24,7.23 -14.54,6.33 -14.84,5.44 -14.92,4.50 -15.00,3.56 -14.85,2.63 -14.71,1.70 -14.34,0.84 -13.97,-0.02 -13.41,-0.78 -12.85,-1.53 -12.12,-2.13 -11.39,-2.73 -10.54,-3.13 -9.69,-3.54 -8.77,-3.73 -7.85,-3.92 -6.91,-3.89 -5.97,-3.85 -5.06,-3.60 -4.16,-3.34 -3.34,-2.87 -2.52,-2.40 -7.18,3.84 -11.85,10.08 -12.53,9.43 -13.21,8.78 -13.72,7.99 -14.22,7.19 -14.52,6.30 -14.82,5.41 -14.90,4.47 -14.98,3.53 -14.83,2.60 -14.69,1.67 -14.32,0.80 -13.95,-0.06 -13.39,-0.81 -12.83,-1.57 -12.10,-2.16 -11.37,-2.76 -10.52,-3.17 -9.67,-3.58 -8.75,-3.77 -7.83,-3.96 -6.89,-3.92 -5.94,-3.89 -5.04,-3.63 -4.13,-3.37 -3.32,-2.90 -2.50,-2.43 -1.58,-1.27 -0.67,-0.10 1.39,0.43 3.45,0.97 5.49,1.90 7.52,2.82 9.30,4.37 11.08,5.91 13.40,6.76 15.73,7.62 17.85,8.28 19.97,8.93 17.41,11.44 14.85,13.95 15.52,15.98 16.19,18.01 17.90,19.35 19.61,20.70 17.26,19.45 14.90,18.21 12.69,17.75 10.49,17.30 8.55,15.84 6.61,14.39 5.84,12.38 5.07,10.38 5.27,8.11 5.48,5.83 6.18,3.43 6.87,1.04 7.48,-1.14 8.09,-3.33 8.50,-5.86 8.92,-8.39 9.10,-11.05 9.28,-13.70 9.48,-16.57 9.69,-19.44 10.20,-21.91 10.71,-24.38 12.20,-26.16 13.69,-27.94 15.99,-29.09 18.29,-30.24 20.65,-30.71 23.01,-31.18 26.23,-30.73 29.45,-30.28 31.25,-29.09 33.05,-27.90 34.67,-26.19 36.30,-24.48 37.21,-21.96 38.12,-19.44 38.72,-17.29 39.31,-15.15 41.41,-13.99 43.50,-12.83 47.01,-10.96 50.52,-9.09 53.78,-6.20 57.04,-3.32 57.73,-1.02 58.42,1.27 57.98,3.57 57.53,5.87 56.10,7.59 54.67,9.32 52.92,10.69 51.17,12.06 49.22,13.31 47.27,14.55 45.27,16.02 43.28,17.50 41.37,19.28 39.47,21.05 37.66,22.85 35.85,24.64 34.40,26.29 32.95,27.94 30.74,29.85 28.53,31.76 26.24,31.89 23.94,32.02 21.35,30.86 18.77,29.70 17.78,26.78 16.80,23.86 17.08,21.34 17.36,18.83 17.63,21.26 17.90,23.70 17.62,20.23 17.33,16.76 18.46,18.83 19.60,20.90 18.20,19.17 16.80,17.44 16.86,13.26 16.92,9.09 18.12,6.57 19.32,4.05 19.42,1.84 19.52,-0.36 19.70,-2.48 19.88,-4.60 19.55,-6.87 19.21,-9.15 18.88,-11.56 18.55,-13.98 18.21,-16.13 17.88,-18.27 17.99,-20.58 18.09,-22.88 18.38,-25.04 18.68,-27.19 18.99,-28.05 19.30,-28.91 19.81,-29.67 20.32,-30.43 21.00,-31.05 21.67,-31.66 22.47,-32.10 23.28,-32.54 24.16,-32.77 25.05,-33.00 25.96,-33.01 26.88,-33.02 27.77,-32.82 28.66,-32.61 29.47,-32.20 30.29,-31.78 30.98,-31.19 31.67,-30.59 32.20,-29.85 32.73,-29.10 33.07,-28.25 33.41,-27.40 33.53,-26.50 33.65,-25.59 33.55,-24.68 33.46,-23.77 33.20,-22.80 32.95,-21.83 33.08,-19.27 33.21,-16.72 33.26,-13.77 33.32,-10.81 32.05,-8.29 30.79,-5.76 30.10,-3.28 29.41,-0.79 28.04,0.98 26.67,2.77 24.01,4.79 21.34,6.82 19.32,7.80 17.31,8.78 13.77,9.57 10.23,10.37 8.07,11.40 5.91,12.44 3.89,13.13 1.87,13.83 3.84,10.59 5.81,7.34 4.68,4.15 3.56,0.95 5.90,1.92 8.23,2.89 10.71,3.49 13.19,4.09 16.13,4.21 19.07,4.33 21.32,3.57 23.56,2.81 26.55,1.84 29.55,0.87 32.10,-0.48 34.65,-1.84 36.52,-2.92 38.38,-3.99 38.90,-1.37 39.43,1.24 37.18,0.55 34.94,-0.13 32.66,-1.24 30.39,-2.35 28.51,-4.09 26.63,-5.83 24.93,-7.57 23.23,-9.32 22.12,-11.79 21.00,-14.26 23.57,-13.38 26.13,-12.50 24.24,-11.20 22.36,-9.90 19.70,-8.74 17.04,-7.59 14.63,-6.09 12.23,-4.59 10.48,-2.81 8.72,-1.03 6.74,0.91 4.75,2.86 4.05,3.36 3.35,3.87 2.84,4.21 2.33,4.56 1.75,4.77 1.17,4.98 0.55,5.05 -0.05,5.12 -0.66,5.04 -1.28,4.96 -1.85,4.73 -2.43,4.50 -2.93,4.15 -3.43,3.79 -3.84,3.33 -4.24,2.86 -4.52,2.31 -4.80,1.76 -4.95,1.16 -5.09,0.56 -5.08,-0.05 -5.07,-0.67 -4.92,-1.27 -4.76,-1.86 -4.47,-2.41 -4.18,-2.95 -3.76,-3.41 -3.35,-3.87 -3.35,-3.87 L -3.35,-3.87 Z"></path></g><g transform="translate(964.1472430250474 270.0791098464037) rotate(14.999999999999982 15 9.5)"><text x="0" y="0" font-family="Helvetica, Segoe UI Emoji" font-size="16px" fill="#000000" text-anchor="start" style="white-space: pre;" direction="ltr" dominant-baseline="text-before-edge">*...1</text></g></svg>